<?xml version="1.0" encoding="utf-8"?>
<!-- Generator: Adobe Illustrator 16.0.0, SVG Export Plug-In . SVG Version: 6.00 Build 0)  -->
<!DOCTYPE svg PUBLIC "-//W3C//DTD SVG 1.1//EN" "http://www.w3.org/Graphics/SVG/1.1/DTD/svg11.dtd">
<svg version="1.1" xmlns="http://www.w3.org/2000/svg" xmlns:xlink="http://www.w3.org/1999/xlink" x="0px" y="0px"
	 width="595.276px" height="198.425px" viewBox="0 0 595.276 198.425" enable-background="new 0 0 595.276 198.425"
	 xml:space="preserve">
<g id="_x34_04">
	<path fill="#0088CC" d="M564.996,87.406V28.638h-42.979l-144.29,42.98c0,0.001,0,29.383,0,29.383h-11.403V58.474
		c0-16.477-18.995-29.836-42.426-29.836h-91.012c-23.431,0-42.426,13.359-42.426,29.836v38.98l-6.14-10.048h-8.772V28.638h-42.978
		L9.331,71.618c0,0,0,39.689,0,42.54c0,2.852,4.059,5.263,7.511,5.263c3.453,0,116.603,0,116.603,0v14.912h42.102v-15.35h20.261
		c7.247,9.151,21.125,15.35,37.077,15.35h91.012c15.69,0,29.357-6.006,36.697-14.912h162.297v14.912h42.104v-15.35h4.385
		l17.543-31.578H564.996z M133.007,87.406c0,0-68.909,0-74.118,0c-5.208,0-12.817-4.092-3.026-7.509
		c9.792-3.418,77.144-26.699,77.144-26.699V87.406z M321.589,100.775c0,8.239-7.96,14.919-17.782,14.919H254.95
		c-9.822,0-17.783-6.68-17.783-14.919V63.292c0-8.24,7.961-14.918,17.783-14.918h48.857c9.822,0,17.782,6.678,17.782,14.918V100.775
		z M522.454,87.406c0,0-84.696,0-89.905,0c-5.208,0-12.817-4.092-3.025-7.509c9.791-3.418,92.931-26.699,92.931-26.699V87.406z"/>
</g>
<g id="Contour_Diesel">
	<g>
		<path fill="#FFFFFF" d="M589.029,150.182c-0.83-0.923-2.002-1.445-3.227-1.445c-0.678,0-1.353,0.162-1.954,0.47
			c-0.679,0.339-9.461,4.673-16.117,5.021c-0.272,0.015-0.536,0.021-0.793,0.021c-0.966,0-1.79-0.102-2.449-0.302
			c-2.234-0.677-2.757-1.454-2.864-1.677c-0.108-0.223-0.097-0.465-0.077-0.602l17.739-35.678c0.682-1.378,0.579-3.023-0.267-4.299
			c-0.787-1.206-2.136-1.938-3.596-1.938c-0.077,0-0.154,0.002-0.232,0.006l-9.633,0.505c-1.569,0.08-2.971,1.01-3.654,2.426
			c-0.123,0.25-13.12,26.741-15.671,31.989c-1.249,2.57-2.06,5.46-2.32,8.196l-0.73,0.263c-0.02,0.007-0.038,0.015-0.058,0.021
			c-0.64,0.247-1.386,0.482-2.177,0.73l-0.645,0.204l-0.169,0.055c-1.008,0.327-2.05,0.666-3.252,0.969
			c-0.021,0.006-0.042,0.011-0.063,0.017l-0.731,0.2l-0.189,0.052c-0.069,0.011-0.129,0.022-0.178,0.032l-0.505,0.082l-0.876,0.146
			l-1.171,0.194l-0.611,0.084c-0.555,0.076-1.119,0.154-1.693,0.231l-0.467,0.065c-0.088,0.005-0.188,0.013-0.285,0.021l-0.122,0.01
			l-1.06,0.061c-0.276,0.01-0.557,0.017-0.84,0.02c2.653-0.529,5.691-1.324,8.768-3.085c2.172-1.226,5.171-3.441,7.035-6.989
			l0.245-0.455l0.146-0.278c0.035-0.066,0.067-0.134,0.097-0.203l0.139-0.322c0.028-0.066,0.055-0.134,0.079-0.203l0.013-0.037
			l0.277-0.705c0.025-0.063,0.048-0.128,0.068-0.192c0.379-1.194,0.603-2.414,0.631-3.441c0.106-2.071-0.286-4.175-1.134-6.087
			c-1.654-3.656-4.472-6.428-8.157-8.035c-0.838-0.377-1.826-0.689-2.99-0.939c-0.079-0.017-0.159-0.03-0.24-0.041l-1.311-0.172
			c-0.116-0.016-0.234-0.023-0.353-0.025l-0.422-0.005l-0.162-0.008l-0.438-0.018c-0.124-0.004-0.198-0.008-0.273-0.012
			c-0.198-0.011-0.397-0.02-0.627-0.02l-0.154,0.001c-0.065,0.002-0.132,0.005-0.197,0.011l-1.227,0.103
			c-1.019,0.078-1.848,0.251-2.579,0.402l-0.057,0.012c-3.231,0.707-6.223,2.042-8.924,3.973c-1.254,0.854-2.439,1.992-3.228,2.747
			l-0.166,0.159c-0.014,0.013-0.027,0.026-0.041,0.04c-0.836,0.829-2.039,2.107-3.027,3.486c-1.987,2.8-2.883,4.994-3.932,7.788
			c-0.007,0.02-0.014,0.038-0.021,0.058c-0.752,2.132-1.237,4.084-1.485,6.003c-1.616,0.523-3.14,1.019-4.556,1.484
			c0.177-2.428,0.011-4.709-0.177-6.49c-0.169-1.61-0.404-3.236-0.631-4.809c-0.277-1.922-0.543-3.758-0.698-5.561
			c1.204-0.701,3.09-2.021,3.463-4.634c0.17-1.185-0.156-2.322-0.919-3.203c-1.337-1.543-3.457-1.721-4.935-1.722
			c-2.037,0-4.125,0.411-4.356,0.458c-0.462,0.094-0.896,0.295-1.265,0.587c-0.088,0.069-8.856,7.009-18.875,15.547
			c-2.403,2.049-4.393,3.796-6.148,5.338c-5.099,4.479-7.658,6.727-10.275,7.434c-5.104,1.465-9.37,2.233-12.384,2.233
			c-0.501,0-0.97-0.021-1.395-0.064c-1.045-0.104-1.839-0.334-2.421-0.735c0.639,0.024,1.269,0.036,1.883,0.036
			c1.583,0,3.096-0.08,4.498-0.238c2.647-0.299,11.567-1.73,15.126-7.592c1.121-1.848,2.13-4.905,0.562-8.98
			c-2.404-6.267-8.057-10.161-14.749-10.162c-1.659,0-3.343,0.239-5.007,0.71c-2.661,0.751-5.312,2.017-7.665,3.66
			c-2.026,1.414-4.927,3.647-7.226,6.253c-6.636,7.527-7.432,13.271-7.309,16.043c-0.42,0.019-0.853,0.029-1.288,0.029
			c-4.067,0-5.088-0.924-5.19-1.029c-0.051-0.051-0.09-0.092-0.085-0.314c0.087-3.864,6.809-14.18,11.554-20.271
			c0.722-0.927,0.837-2.189,0.294-3.23c-0.19-0.365-0.451-0.68-0.758-0.931c1.664-0.602,3.132-1.564,4.237-2.799
			c1.655-1.851,2.352-4.179,1.91-6.387c-0.723-3.61-4.283-6.131-8.659-6.131c-0.76,0-1.53,0.077-2.289,0.229
			c-2.354,0.47-4.459,1.631-5.925,3.27c-1.655,1.851-2.352,4.179-1.91,6.387c0.443,2.222,1.965,4.027,4.089,5.09l-6.734,0.352
			c-0.887,0.047-1.708,0.483-2.242,1.193c-0.087,0.115-8.88,11.701-19.55,17.994c-10.674,6.291-27.468,8.588-27.636,8.61
			c-1.467,0.195-2.572,1.431-2.604,2.91s1.021,2.761,2.478,3.018c0.197,0.035,2.02,0.341,5.26,0.341c3.56,0,9.35-0.384,16.722-2.21
			c5.729-1.421,9.44-2.504,11.837-3.297c0.912,3.757,3.271,7.998,8.372,9.319c0.871,0.225,1.849,0.339,2.908,0.339
			c5.29,0,12.418-2.842,17.445-5.214c3.272,5.22,9.314,5.972,14.465,5.972c1.22,0,2.549-0.046,4.062-0.142
			c6.927-0.438,15.058-4.727,20.7-8.279c0.008-0.004,0.016-0.009,0.022-0.013c1.471-0.839,2.415-1.229,2.982-1.41
			c0.047,0.165,0.095,0.337,0.143,0.507c0.475,1.709,1.066,3.835,2.741,5.24c3.273,2.747,7.896,4.261,13.016,4.261
			c5.563,0,10.835-1.749,14.462-4.797c0.437-0.367,0.85-0.751,1.248-1.16c0.511-0.09,1.061-0.189,1.648-0.298
			c2.525-0.417,5.715-1.036,9.383-1.758c0.485,0.958,1.053,1.857,1.686,2.666c2.096,2.692,5.182,4.755,8.684,5.801
			c0.032,0.009,0.063,0.018,0.096,0.026c2.265,0.595,4.488,0.884,6.798,0.884c2.929,0,5.488-0.479,7.391-0.896
			c0.027-0.007,0.056-0.013,0.083-0.02l0.896-0.228l0.462-0.117c0.029-0.007,0.058-0.015,0.086-0.023l0.747-0.213
			c0.045-0.013,0.09-0.026,0.135-0.042l0.583-0.196l1.193-0.405l1.07-0.363c0.057-0.02,0.112-0.04,0.168-0.062l0.938-0.381
			l1.305-0.53l0.515-0.211l0.347-0.134c0.067-0.026,0.135-0.055,0.2-0.086l0.242-0.114l0.716-0.33l0.193-0.089
			c1.958-0.864,3.812-1.866,5.551-2.866c2.697,3.839,7.294,5.784,13.671,5.784c0.57,0,1.163-0.016,1.763-0.047l0.459-0.028
			c7.836-0.508,14.945-2.828,20.57-6.709c4.467-3.082,6.545-6.134,6.768-6.472C590.484,153.813,590.333,151.649,589.029,150.182z
			 M525.359,143.474c0.324-0.357,0.579-0.619,0.86-0.909c0.122-0.125,0.247-0.253,0.38-0.392c1.016-0.96,2.114-1.728,3.179-2.223
			c0.231-0.108,0.565-0.266,0.68-0.307c0.104-0.034,0.186-0.065,0.286-0.111l0.12-0.054c0.017-0.002,0.033-0.005,0.05-0.008
			c0.124-0.02,0.248-0.04,0.365-0.062l0.386-0.062l0.224-0.038l0.068-0.011l0.045-0.007c0.047-0.007,0.094-0.016,0.141-0.024
			c0.353,0.077,0.834,0.404,0.944,0.604c0.015,0.028,0.043,0.079,0.06,0.106c0.041,0.069,0.069,0.126,0.088,0.17l-0.044,0.074
			c-0.285,0.489-0.975,0.969-2.123,1.489C529.392,142.357,527.437,142.907,525.359,143.474z M480.128,156.402
			c-0.118,0-0.239-0.003-0.361-0.009c-0.026-0.082-0.052-0.165-0.074-0.239c-0.303-0.986-0.761-2.478-2.207-3.571
			c-0.631-0.477-1.381-0.813-2.286-1.021c2.466-2.263,5.292-4.854,7.268-6.665c0.716,1.279,1.468,3.027,1.821,5.137
			c0.358,2.13,0.023,3.988-0.917,5.101C482.66,155.976,481.569,156.402,480.128,156.402z M438.669,146.572
			c0.867-2,2.67-4.396,6.385-5.076c0.752-0.138,1.416-0.207,1.973-0.207c0.356,0,0.608,0.028,0.78,0.061
			c-0.002,0.007-0.003,0.014-0.005,0.021c-0.313,0.927-3.671,3.868-7.762,4.923C439.642,146.397,439.174,146.488,438.669,146.572z"
			/>
		<path fill="#FFFFFF" d="M395.102,129.928c0.848-2.387,0.718-4.746-0.374-6.823c-2.773-5.28-10.919-11.518-33.613-12.515
			l1.425-1.911c0.69-0.926,0.788-2.166,0.25-3.188c-0.52-0.989-1.544-1.604-2.655-1.604c-0.037,0-0.075,0.001-0.113,0.002
			l-16.107,0.61c-0.986,0.037-1.891,0.558-2.42,1.391l-3.342,5.267c-7.262,0.576-15.162,1.506-23.512,2.766
			c-55.027,8.31-108.941,30.098-109.479,30.317c-0.812,0.331-1.439,1-1.716,1.833c-0.276,0.832-0.175,1.744,0.278,2.495
			l7.376,12.229c0.557,0.922,1.544,1.45,2.57,1.45c0.362,0,0.729-0.065,1.084-0.203c0.401-0.155,40.403-15.577,65.894-16.818
			c0.027-0.001,0.055-0.003,0.083-0.005c0.069-0.005,7.029-0.529,15.049-0.529c11.229,0,16.969,0.981,19.881,1.9l-10.816,17.039
			c-0.612,0.965-0.623,2.193-0.028,3.169c0.548,0.898,1.521,1.438,2.561,1.438c0.09,0,0.18-0.004,0.27-0.012
			c1.051-0.095,26.007-2.435,49.815-12.617C379.776,146.063,392.44,137.424,395.102,129.928z M330.294,151.939l20.918-28.062
			c10.194,0.772,16.393,3.213,17.092,6.769C368.764,132.982,362.601,141.143,330.294,151.939z M329.92,124.127l-7.416,11.683
			c-5.354-1.038-12.118-1.564-20.149-1.564c-5.064,0-10.661,0.215-16.635,0.639c-5.784,0.409-11.491,1.113-16.989,2.004
			c13.691-4.909,28.673-9.088,43.458-10.961C318.572,125.117,324.511,124.515,329.92,124.127z"/>
	</g>
</g>
<g id="Diesel">
	<g>
		
			<ellipse transform="matrix(0.1963 0.9805 -0.9805 0.1963 457.7752 -313.7338)" fill="#FFB000" cx="420.269" cy="122.381" rx="4.933" ry="6.577"/>
	</g>
	<g>
		<path fill="#FFB000" d="M586.787,152.175c-0.402-0.447-1.057-0.565-1.58-0.294c-0.099,0.049-9.729,4.945-17.318,5.343
			c-1.66,0.088-3.098-0.049-4.272-0.406c-2.431-0.736-4.01-1.826-4.693-3.243c-0.737-1.522-0.197-2.96-0.201-2.96l17.879-35.959
			c0.207-0.418,0.178-0.916-0.08-1.305c-0.257-0.394-0.698-0.619-1.167-0.594l-9.637,0.505c-0.478,0.024-0.902,0.304-1.11,0.734
			c0,0-13.096,26.692-15.674,31.996c-1.217,2.503-2.164,5.819-2.108,9.021c-0.745,0.275-1.616,0.583-2.617,0.946
			c-0.91,0.352-1.915,0.651-2.992,0.994c-1.059,0.344-2.233,0.73-3.598,1.074c-0.333,0.092-0.668,0.183-1.012,0.276l-0.259,0.071
			c0.138-0.061-0.104,0.004-0.139,0.004l-0.507,0.083c-0.675,0.112-1.368,0.226-2.08,0.345c-0.767,0.105-1.551,0.215-2.355,0.323
			l-0.609,0.085c0.006-0.013-0.316,0.021-0.46,0.031l-1.127,0.064c-2.991,0.105-6.402-0.083-8.827-1.254
			c-1.559-0.76-2.337-1.528-2.691-2.635c1.752-0.373,3.555-0.762,5.41-1.158c3.554-0.808,7.94-1.062,12.408-3.619
			c2.205-1.244,4.489-3.154,5.869-5.781l0.261-0.483l0.127-0.243l0.139-0.322l0.033-0.096l0.301-0.764
			c0.29-0.914,0.476-1.878,0.492-2.65c0.091-1.652-0.233-3.301-0.878-4.754c-1.31-2.895-3.578-5.178-6.614-6.502
			c-0.753-0.339-1.575-0.574-2.421-0.756l-1.311-0.172l-0.472-0.006l-0.213-0.01l-0.425-0.018c-0.294-0.008-0.538-0.033-0.878-0.027
			l-1.227,0.103c-0.87,0.067-1.57,0.216-2.276,0.362c-2.846,0.623-5.49,1.827-7.816,3.496c-1.144,0.773-2.336,1.943-3.038,2.614
			c-0.906,0.899-1.908,1.997-2.701,3.104c-1.824,2.57-2.637,4.63-3.562,7.096c-0.775,2.199-1.389,4.584-1.497,7.246
			c-4.521,1.465-8.347,2.699-11.289,3.732c1.148-3.271,1.148-6.938,0.756-10.664c-0.413-3.933-1.232-7.963-1.438-11.898
			c-0.062-1.15,3.225-1.322,3.585-3.844c0.362-2.521-6.645-1.102-6.645-1.102s-8.697,6.876-18.789,15.477
			c-9.994,8.52-13.265,12.217-17.588,13.385c-4.7,1.35-10.663,2.677-14.858,2.258c-5.091-0.507-6.424-3.791-6.463-7.08
			c2.95,0.365,6.776,0.584,10.383,0.176c6.301-0.711,16.42-4.211,13.226-12.514c-2.599-6.771-9.33-9.57-16.139-7.643
			c-2.375,0.67-4.737,1.816-6.765,3.232c-2.343,1.635-4.804,3.637-6.694,5.779c-4.233,4.802-7.065,10.408-6.507,14.539
			c0.109,0.809,0.274,1.533,0.464,2.22c-3.829,0.491-13.196,1.167-13.077-4.084c0.148-6.595,12.187-22.046,12.187-22.046
			l-13.223,0.689c0,0-9.085,12.088-20.425,18.775c-11.345,6.688-28.764,9-28.764,9s7.801,1.378,20.738-1.827
			c12.938-3.209,15.077-4.578,15.077-4.578s-0.28,8.825,6.605,10.608c5.603,1.448,16.989-3.953,21.028-6.013
			c2.073,6.458,7.984,7.441,16.91,6.878c6.542-0.413,14.569-4.841,19.403-7.895c0.008-0.004,0.016-0.006,0.023-0.01
			c4.722-2.691,6.324-2.211,6.9-0.94c0.692,1.528,0.943,4.381,2.379,5.585c6.164,5.174,17.681,4.458,23.619-0.534
			c0.624-0.523,1.167-1.073,1.655-1.646c0.772-0.13,1.658-0.287,2.655-0.471c3.018-0.498,7.007-1.29,11.726-2.221
			c0.487,1.498,1.258,3.004,2.222,4.235c1.992,2.559,4.747,4.048,7.18,4.774c4.978,1.308,9.123,0.762,12.782-0.042
			c0.454-0.113,0.901-0.229,1.349-0.342l0.747-0.213l0.583-0.196c0.771-0.261,1.521-0.518,2.259-0.768
			c0.764-0.311,1.512-0.612,2.239-0.909l0.538-0.221l0.377-0.146l0.242-0.114c0.324-0.148,0.642-0.296,0.954-0.44
			c2.466-1.086,4.827-2.452,6.521-3.449c0.55-0.324,1.042-0.627,1.51-0.921c0.264,0.805,0.591,1.585,1.063,2.299
			c2.277,3.438,6.642,5.012,12.969,4.681l0.433-0.026c17.736-1.15,24.725-11.396,25.014-11.835
			C587.233,153.279,587.184,152.622,586.787,152.175z M521.052,144.055c0.508-0.696,0.967-1.281,1.578-2.025
			c0.829-0.954,1.247-1.352,1.852-1.983c1.187-1.131,2.561-2.133,4.032-2.816c0.374-0.176,0.755-0.355,1.005-0.436l0.435-0.194
			c0.22-0.057,0.542-0.095,0.809-0.146l0.418-0.068l0.208-0.035l0.106-0.017l0.055-0.009c0.073-0.007-0.433,0.008-0.209,0.002
			c0.12-0.014,0.245-0.033,0.372-0.062c0.264-0.007,0.549-0.027,0.85,0.028c1.175,0.186,2.562,1.034,3.166,2.156
			c0.322,0.545,0.515,1.104,0.54,1.65c0.008,0.332-0.048,0.438-0.015,0.588l-0.286,0.74l-0.063,0.099l-0.137,0.229
			c-0.713,1.227-2.021,2.041-3.541,2.722c-3.149,1.229-7.009,2.067-10.919,3.244c-0.93,0.286-1.811,0.552-2.717,0.83
			C519.277,146.999,520.308,145.081,521.052,144.055z M435.253,147.289c1.011-3.787,3.796-7.743,9.26-8.744
			c5.396-0.984,6.752,1.018,6.221,3.463c-0.529,2.444-5.287,5.99-9.944,7.191c-1.694,0.437-4.03,0.645-6.114,0.964
			C434.814,149.103,435.038,148.106,435.253,147.289z M479.07,159.351c-2.682-0.26-1.754-3.135-3.394-4.375
			c-2.194-1.657-9.122,0.477-7.624-0.919c1.5-1.394,14.887-13.661,14.887-13.661s3.352,3.429,4.309,9.144
			C488.208,155.251,485.341,159.952,479.07,159.351z"/>
	</g>
	<g>
		<path fill="#FFB000" d="M392.073,124.501c-2.734-5.205-12.31-10.951-36.836-11.047l4.897-6.568l-16.107,0.61l-4.147,6.536
			c-7.286,0.535-15.496,1.452-24.791,2.855c-55.311,8.352-108.796,30.129-108.796,30.129l7.376,12.229
			c0,0,40.548-15.738,66.833-17.018c0,0,32.123-2.457,39.495,3.129l-12.619,19.88c0,0,25.259-2.274,48.904-12.388
			S395.975,131.923,392.073,124.501z M285.932,137.876c-19.734,1.397-38.583,6.256-51.609,10.367
			c19.018-9.284,48.575-21.629,77.488-25.293c9.274-1.176,17.123-1.861,23.783-2.164l-11.677,18.395
			C317.936,137.763,306.544,136.415,285.932,137.876z M325.484,156.649c-1.21,0.381-2.237,0.695-3.169,0.975l27.467-36.848
			c16.161,0.914,20.675,5.268,21.466,9.29C372.471,136.273,359.476,145.98,325.484,156.649z"/>
	</g>
</g>
</svg>
