<?xml version="1.0" encoding="utf-8"?>
<!-- Generator: Adobe Illustrator 16.0.0, SVG Export Plug-In . SVG Version: 6.00 Build 0)  -->
<!DOCTYPE svg PUBLIC "-//W3C//DTD SVG 1.1//EN" "http://www.w3.org/Graphics/SVG/1.1/DTD/svg11.dtd">
<svg version="1.1" id="Calque_6" xmlns="http://www.w3.org/2000/svg" xmlns:xlink="http://www.w3.org/1999/xlink" x="0px" y="0px"
	 width="250px" height="160px" viewBox="0 0 401 256" enable-background="new 0 0 401 256" xml:space="preserve">
<g>
	<ellipse cx="179.25" cy="90.25" rx="17.5" ry="17"/>
	<ellipse cx="225.25" cy="90.25" rx="17.5" ry="17"/>
	<ellipse cx="193.875" cy="118.875" rx="5.125" ry="4.875"/>
	<ellipse cx="209.875" cy="118.875" rx="5.125" ry="4.875"/>
	<path d="M170.585,129.573c-0.057,0.477-0.085,0.953-0.085,1.427v8c0,6.893,5.607,12.5,12.5,12.5h40c6.893,0,12.5-5.607,12.5-12.5
		v-8c0-0.475-0.028-0.951-0.085-1.427C254.019,118.443,265.5,98.463,265.5,77c0-33.911-28.037-61.5-62.5-61.5
		c-34.462,0-62.5,27.589-62.5,61.5C140.5,98.463,151.982,118.443,170.585,129.573z M203,20.5c31.706,0,57.5,25.346,57.5,56.5
		c0,20.254-11.15,39.076-29.1,49.12c-1.008,0.564-1.498,1.745-1.187,2.857c0.19,0.676,0.286,1.356,0.286,2.022v8
		c0,4.136-3.364,7.5-7.5,7.5h-5.75V135c0-0.829-0.672-1.5-1.5-1.5s-1.5,0.671-1.5,1.5v11.5h-6V135c0-0.829-0.672-1.5-1.5-1.5
		s-1.5,0.671-1.5,1.5v11.5h-6V135c0-0.829-0.671-1.5-1.5-1.5s-1.5,0.671-1.5,1.5v11.5h-6V135c0-0.829-0.671-1.5-1.5-1.5
		s-1.5,0.671-1.5,1.5v11.5H183c-4.136,0-7.5-3.364-7.5-7.5v-8c0-0.665,0.096-1.346,0.286-2.024c0.312-1.112-0.179-2.292-1.187-2.856
		C156.65,116.076,145.5,97.254,145.5,77C145.5,45.846,171.294,20.5,203,20.5z"/>
	<path d="M114.961,115.27H86.876V4.987h-5.708L3.537,114.357v5.48H82.31v40.414h4.566v-40.414h28.084V115.27z M82.31,115.27H8.103
		l73.75-103.889h0.457V115.27z"/>
	<path d="M367.877,115.27V4.987h-5.709l-77.631,109.37v5.48h78.773v40.414h4.566v-40.414h28.084v-4.567H367.877z M363.311,115.27
		h-74.207l73.75-103.889h0.457V115.27z"/>
	<path d="M278.502,188.631c8.892,0,16.125-7.233,16.125-16.125c0-7.554-5.222-13.911-12.244-15.653
		c1.044-2.163,1.598-4.544,1.598-6.978c0-8.891-7.233-16.125-16.125-16.125s-16.125,7.234-16.125,16.125
		c0,2.055,0.396,4.082,1.159,5.979l-50.65,23.309l-50.649-23.309c0.763-1.897,1.159-3.925,1.159-5.979
		c0-8.891-7.233-16.125-16.125-16.125c-8.891,0-16.125,7.234-16.125,16.125c0,2.434,0.553,4.815,1.597,6.978
		c-7.023,1.741-12.244,8.099-12.244,15.653c0,8.892,7.234,16.125,16.125,16.125c6.098,0,11.541-3.377,14.284-8.636l30.084,13.845
		l-29.684,13.661c-2.563-5.7-8.244-9.478-14.684-9.478c-8.891,0-16.125,7.233-16.125,16.125c0,7.554,5.221,13.912,12.245,15.653
		c-1.044,2.162-1.597,4.544-1.597,6.978c0,8.892,7.234,16.125,16.125,16.125s16.125-7.233,16.125-16.125
		c0-1.732-0.284-3.461-0.833-5.104l50.322-23.158l50.322,23.158c-0.549,1.643-0.833,3.371-0.833,5.104
		c0,8.892,7.233,16.125,16.125,16.125s16.125-7.233,16.125-16.125c0-2.434-0.554-4.815-1.597-6.978
		c7.023-1.741,12.244-8.1,12.244-15.653c0-8.892-7.233-16.125-16.125-16.125c-6.439,0-12.12,3.777-14.684,9.478l-29.686-13.661
		l30.085-13.845C266.961,185.254,272.403,188.631,278.502,188.631z M145.226,229.251l1.235,2.336c0.856,1.618,1.29,3.365,1.29,5.192
		c0,6.135-4.991,11.125-11.125,11.125s-11.125-4.99-11.125-11.125c0-2.71,0.998-5.327,2.811-7.37l3.851-4.34l-5.799,0.182
		c-0.098,0.003-0.194,0.01-0.292,0.017l-0.093,0.006c-6.134,0-11.125-4.99-11.125-11.125s4.991-11.125,11.125-11.125
		c5.142,0,9.581,3.491,10.796,8.491l0.717,2.949l38.835-17.872l19.933,9.174L145.226,229.251z M266.988,214.464l0.718-2.949
		c1.215-5,5.654-8.491,10.796-8.491c6.135,0,11.125,4.99,11.125,11.125s-4.99,11.125-11.117,11.125l-0.101-0.006
		c-0.097-0.007-0.194-0.014-0.292-0.017l-5.798-0.182l3.85,4.34c1.812,2.043,2.811,4.66,2.811,7.37
		c0,6.135-4.99,11.125-11.125,11.125s-11.125-4.99-11.125-11.125c0-1.827,0.434-3.574,1.29-5.192l1.235-2.336l-121.82-56.061
		l-0.858,2.694c-1.476,4.633-5.735,7.746-10.599,7.746c-6.134,0-11.125-4.99-11.125-11.125s4.991-11.125,11.119-11.125l6.207,0.223
		l-3.868-4.359c-1.813-2.043-2.811-4.66-2.811-7.37c0-6.134,4.991-11.125,11.125-11.125s11.125,4.991,11.125,11.125
		c0,2.06-0.58,4.083-1.678,5.85l-1.494,2.406L266.988,214.464z M228.152,191.088l-19.932-9.173l51.683-23.784l-1.494-2.406
		c-1.099-1.767-1.679-3.79-1.679-5.85c0-6.134,4.99-11.125,11.125-11.125s11.125,4.991,11.125,11.125c0,2.71-0.998,5.327-2.812,7.37
		l-3.868,4.358l5.824-0.2l0.377-0.022c6.135,0,11.125,4.99,11.125,11.125s-4.99,11.125-11.125,11.125
		c-4.863,0-9.123-3.113-10.599-7.746l-0.857-2.694L228.152,191.088z"/>
</g>
</svg>
