<?xml version="1.0" encoding="utf-8"?>
<!-- Generator: Adobe Illustrator 16.0.0, SVG Export Plug-In . SVG Version: 6.00 Build 0)  -->
<!DOCTYPE svg PUBLIC "-//W3C//DTD SVG 1.1//EN" "http://www.w3.org/Graphics/SVG/1.1/DTD/svg11.dtd">
<svg version="1.1" xmlns="http://www.w3.org/2000/svg" xmlns:xlink="http://www.w3.org/1999/xlink" x="0px" y="0px"
	 width="518.418px" height="573.566px" viewBox="41.082 15.5 518.418 573.566" enable-background="new 41.082 15.5 518.418 573.566"
	 xml:space="preserve">
<g id="Calque_3">
</g>
<g id="Calque_2">
	<g>
		<path fill="#004254" d="M255.556,402.297c0,55.188,32.062,102.886,78.573,125.484l-66.504-182.223
			C259.886,362.897,255.556,382.085,255.556,402.297z"/>
		<path fill="#004254" d="M489.094,398.27c0-17.232-6.189-29.167-11.493-38.452c-7.067-11.486-13.694-21.21-13.694-32.702
			c0-12.811,9.71-24.747,23.41-24.747c0.617,0,1.204,0.083,1.805,0.116c-24.806-22.73-57.857-36.605-94.149-36.605
			c-48.711,0-91.562,24.992-116.491,62.839c3.269,0.103,6.354,0.166,8.975,0.166c14.577,0,37.159-1.77,37.159-1.77
			c7.516-0.441,8.396,10.604,0.888,11.492c0,0-7.553,0.884-15.95,1.324l50.764,151.024l30.516-91.512l-21.718-59.513
			c-7.51-0.44-14.626-1.324-14.626-1.324c-7.514-0.439-6.632-11.934,0.884-11.492c0,0,23.023,1.77,36.718,1.77
			c14.583,0,37.165-1.77,37.165-1.77c7.516-0.441,8.403,10.604,0.888,11.492c0,0-7.563,0.884-15.956,1.324l50.387,149.876
			l13.912-46.468C484.505,424.048,489.094,410.202,489.094,398.27z"/>
		<path fill="#004254" d="M397.418,414.499l-41.835,121.553c12.496,3.675,25.706,5.685,39.389,5.685
			c16.233,0,31.807-2.806,46.298-7.905c-0.365-0.595-0.714-1.233-0.996-1.926L397.418,414.499z"/>
		<path fill="#004254" d="M517.318,335.411c0.598,4.441,0.936,9.204,0.936,14.338c0,14.146-2.649,30.048-10.604,49.938
			l-42.582,123.124c41.455-24.163,69.321-69.076,69.321-120.514C534.388,378.06,528.198,355.275,517.318,335.411z"/>
		<path fill="#004254" d="M557.5,402.297c0-89.614-72.908-162.522-162.528-162.522c-89.616,0-162.528,72.908-162.528,162.522
			c0,59.739,32.399,112.043,80.541,140.288c-23.808-1.277-50.35-1.988-78.602-1.988c-90.851,0-191.344,10.399-191.344,23.234
			c0,12.832,85.667,23.235,191.344,23.235s191.344-10.403,191.344-23.235c0-0.613-0.193-1.221-0.566-1.822
			C500.404,547.817,557.5,481.608,557.5,402.297z M415.074,556.081c-14.932-5.238-44.697-9.614-83.73-12.362
			c-53.867-24.335-91.446-78.573-91.446-141.422c0-85.501,69.567-155.068,155.074-155.068c85.5,0,155.074,69.567,155.074,155.068
			C550.046,480.997,491.115,546.192,415.074,556.081z"/>
	</g>
</g>
<g id="Calque_1">
	<g>
		<path fill="#E8F7FE" d="M413.883,396.179c-5.922,0-12.301-2.732-16.857-23.689c-4.557-20.956-11.389-42.369-11.389-42.369
			c7.29,0,11.389-3.189,11.389-3.189c-5.012-2.277-15.945-10.021-23.233-19.589c-7.289-9.567-25.97-25.058-25.97-25.058v-30.979
			c0-20.957,13.44-37.357,13.44-37.357c-9.11,0-13.44,8.199-13.44,8.199v-44.191c0-43.735,22.097-63.324,22.097-63.324
			c-6.834-0.455-11.391,2.734-11.391,2.734c3.188-32.346,13.1-41.914,13.1-41.914c-36.445-9.567-56.777,11.846-56.777,11.846
			c-4.1-19.59,11.932-30.983,11.932-30.983c-18.679-4.1-34.127,1.367-34.127,1.367c0-28.702,11.411-38.275,11.411-38.275
			c-56.947,0-89.282,42.819-89.282,42.819c-2.277-18.224,2.738-34.184,2.738-34.184c-55.125,23.234-69.699,74.689-69.699,74.689
			c-3.645-8.656-4.1-28.305-4.1-28.305s-22.779,38.155-26.88,64.577c-4.1,26.424,3.644,102.279,3.644,102.279
			s-3.642-4.554-11.388-5.466c0,0,8.201,9.112,8.201,29.613c0,0-3.19-2.733-8.657-1.367c0,0,8.655,7.744,9.567,20.957
			c0,0-10.022,6.833-15.489,13.667c0,0-8.657,0.455-13.213,1.822c0,0,7.291,4.101,8.657,7.745c0,0-21.412,21.867-32.347,39.636
			c0,0,9.567-5.922,16.401-4.1c0,0-15.035,18.222-20.046,48.29c0,0,7.288-3.645,10.478-1.821c0,0-9.111,19.133-9.566,39.179
			l-10.023,5.924l7.745,5.467c0,0-5.923,24.603-7.29,38.725c0,0,4.557-4.556,8.201-5.922c0,0,5.012,11.844,11.845,20.956
			c6.834,9.112,22.325,16.857,31.437,16.857l17.126-0.669c-2.125,9.166-6.315,16.938-15.147,17.345L106,529.691
			c-0.187-0.014-0.367-0.021-0.546-0.024c-0.176,2.676-5.575,3.157-7.062,5.011c-4.515,5.633-7.957,13.373-10.25,20.272
			c-1.681,5.059-0.886,5.057-2.05,10.251c-0.382,1.7-2.145,3.518-2.734,5.238c4.92-1.652,18.554-2.756,25.733-3.283l0.122,6.355
			c0,0,1.184,1.102,3.144,1.898c0.068-0.014,0.135-0.031,0.216-0.024c0.665,0.056,1.31,0.151,1.938,0.309
			c10.777-0.964,18.279,0.854,30.769-0.183c2.432-0.29,4.709-0.632,6.838-1.842c0.604-1.809,0.686-1.918,0.97-4.253
			c0.061-0.416,0.061-0.844,0.162-1.351c0.195-0.034,0.385-0.062,0.576-0.091c0.073-0.027,0.189-0.052,0.445-0.061
			c0.054-0.017,0.1-0.042,0.159-0.048c0.197-0.018,0.396-0.032,0.592-0.051c0.138-0.051,0.267-0.064,0.383-0.033
			c2.262-0.201,5.891-0.393,8.15-0.516c7.348-0.012,17.014,0.834,17.014,0.834c0.599-8.234,1.196-21.014,14.521-58.257l3.304-2.049
			c0,0,40.929,14.421,78.905-0.584c3.006,7.396,12.729,32.259,14.259,47.933c1.307,1.836,1.161,4.168,1.205,6.638
			c0.037,2.091,0.214,4.183,0.27,6.266c1.365-0.186,6.298-0.79,12.522-0.779c2.26,0.123,5.889,0.313,8.149,0.516
			c0.116-0.031,0.247-0.018,0.384,0.033c0.196,0.019,0.395,0.033,0.592,0.051c0.06,0.006,0.105,0.031,0.159,0.048
			c0.256,0.009,0.373,0.032,0.445,0.061c0.19,0.028,0.381,0.057,0.576,0.091c0.102,0.507,0.102,0.935,0.161,1.351
			c0.284,2.335,0.366,2.444,0.971,4.253c0.194,0.109,0.394,0.206,0.591,0.304c6.801-0.861,13.69-1.021,20.533-0.696
			c5.382,0.255,10.672,1.267,15.97,2.229c0.002,0.051,0.006,0.103,0.006,0.151c0.533,0.059,1.055,0.096,1.576,0.13
			c2.843,0.508,5.69,0.98,8.561,1.29c0.055-3.587,0.034-6.726-0.04-9.479c5.706,0.274,13.965,1.409,17.43,1.914
			c1.373,0.33,2.489,0.533,3.661,0.785c0.159,0.047,0.327,0.095,0.473,0.144c-0.007-0.015-0.014-0.028-0.019-0.043
			c1.176,0.266,2.443,0.599,4.117,1.181c-0.255-3.082-0.232-3.019-0.639-6.882c-0.315-2.987-2.457-12.066-6.469-15.812
			c0,0,4.369,1.889,5.702,2.641c-4.306-5.834-6.398-14.176-19.928-19.927c0,0,2.47-1.165,4.729-1.459
			c-2.36-1.454-4.165-2.026-6.556-1.854c0.813-2.308,4.386-8.123,7.384-8.87c0,0-1.841-1.279-4.849-0.29
			c-1.119,0.586-2.204,1.215-3.26,1.96c-0.399,0.28-0.981-0.012-1.1-0.447c-0.945-3.499-1.562-7.053-2.119-10.622
			c27.264-0.987,31.088-14.974,31.088-14.974c2.276,1.822,2.275,5.922,2.275,5.922c11.845-15.489,10.479-30.979,10.479-30.979
			c2.731,0.454,5.012,2.277,5.012,2.277c1.366-23.688-5.922-64.235-5.922-64.235c3.645,1.82,5.922-0.456,5.922-0.456
			c-4.101-1.82-4.556-6.378-4.556-6.378C412.973,401.646,413.883,396.179,413.883,396.179"/>
		<path fill="#C8EBF6" d="M153.247,568.065c0,0,1.067-11.523-2.689-19.837c0,0,7.116,0.482,8.312,19.274
			C158.87,567.504,153.886,568.084,153.247,568.065"/>
		<path fill="#C8EBF6" d="M117.526,529.209l0.044-0.354C117.595,529.03,117.591,529.165,117.526,529.209"/>
		<path fill="#C8EBF6" d="M124.189,567.172c-0.041-0.011-0.063-0.017-0.063-0.017s0.028-0.079,0.083-0.218L124.189,567.172z"/>
		<path fill="#C8EBF6" d="M214.785,62.225c-2.277-18.224,2.737-34.185,2.737-34.185c-55.125,23.235-69.702,74.69-69.702,74.69
			c-3.643-8.656-4.099-28.306-4.099-28.306s-22.779,38.156-26.879,64.578c-4.1,26.424,3.643,102.278,3.643,102.278
			s-3.642-4.554-11.387-5.465c0,0,8.2,9.112,8.2,29.613c0,0-3.19-2.734-8.657-1.367c0,0,8.656,7.744,9.567,20.956
			c0,0-10.022,6.834-15.489,13.668c0,0-8.657,0.455-13.212,1.821c0,0,7.29,4.102,8.657,7.745c0,0-21.413,21.868-32.348,39.636
			c0,0,9.567-5.922,16.401-4.101c0,0-15.035,18.223-20.046,48.292c0,0,7.289-3.646,10.478-1.822c0,0-9.111,19.133-9.566,39.179
			l-10.022,5.925l7.744,5.467c0,0-5.922,24.601-7.289,38.724c0,0,4.556-4.555,8.2-5.922c0,0,5.012,11.844,11.846,20.956
			c6.833,9.112,22.325,16.858,31.437,16.858l1.152-0.159c-0.508,3.142-1.079,6.27-1.914,9.353c-0.117,0.438-0.699,0.729-1.099,0.448
			c-1.055-0.745-2.141-1.374-3.259-1.96c-3.009-0.989-4.849,0.29-4.849,0.29c2.997,0.747,6.57,6.562,7.384,8.87
			c-2.392-0.173-4.194,0.397-6.556,1.854c2.26,0.294,4.73,1.459,4.73,1.459c-13.529,5.751-15.623,14.092-19.929,19.927
			c1.334-0.753,5.701-2.641,5.701-2.641c-4.009,3.745-6.15,12.824-6.466,15.812c-0.406,3.862-0.385,3.8-0.64,6.882
			c3.587-1.247,5.33-1.37,8.233-2.066c4.485-0.652,17.022-2.372,21.627-1.894l-0.727,8.855c0,0,0.092,0,0.228-0.003
			c2.363-0.678,4.29-0.587,6.398-0.812c0.031-2.441,0.159-4.88,0.359-7.312c-0.143-4.156,0.375-7.94,1.224-12.16
			c0.028-0.142,0.063-0.29,0.092-0.433c1.673-5.76,4.582-9.039,6.473-11.056c0.627-0.67,1.172-1.463,1.638-2.275
			c1.127-1.502,2.299-3.457,3.204-5.925c1.874-5.111,1.071-16.338-2.693-27.296c3.97,5.708,7.584,10.719,9.297,12.432l-0.112-13.951
			c0,0,7.289,7.285,13.812,12.787c3.141,2.743,7.016,6.312,9.767,7.731c0.198,0.125,0.378-1.2,0.597,0.8h-0.002
			c0.028,0,0.055-0.396,0.083-0.38c3.694,2.073,7.496,3.719,11.054,6.021c0.38,0.245,0.771,0.364,1.145,0.622
			c1.646,1.135,4.546,2.396,7.15,3.77l2.464,29.096c2.222-30.581,19.647-59.864,19.647-59.864l-0.638-0.194
			c-5.393-1.667-44.846-15.315-68.154-64.054c-1.535-3.21,8.655,3.645,8.655,3.645c-9.567-23.234-13.212-60.593-13.212-60.593
			c3.188,2.732,6.379,3.188,6.379,3.188c-6.834-19.135-9.568-42.825-9.568-64.237c-1.821-115.262,40.776-141.685,40.776-141.685
			c-7.289-2.734-15.034-2.506-15.034-2.506c8.428-20.272,36.444-48.519,36.444-48.519c-7.517,0.457-36.901,8.427-36.901,8.427
			c24.373-63.553,48.976-80.409,48.976-80.409c-1.821,15.261,4.101,31.435,4.101,31.435c52.848-65.377,95.309-62.327,95.309-62.327
			c3.147-6.557,6.725-11.029,6.725-11.029C247.122,19.406,214.785,62.225,214.785,62.225"/>
		<path fill="#C8EBF6" d="M364.166,567.705c0,0-0.515-16.518-4.271-24.83c0,0,9.796,6.037,9.739,25.113
			C369.634,567.988,364.805,567.724,364.166,567.705"/>
		<path fill="#A2DDE4" d="M109.318,482.763c6.452-63.191,8.209-186.812,8.209-186.812c-14.01,27.677-25.284,77.905-25.284,77.905
			l2.732,10.934l-6.149-2.733c-9.886,34.307-3.197,80.229-0.982,93.167C94.131,480.198,101.621,481.878,109.318,482.763"/>
		<path fill="#A2DDE4" d="M96.103,481.397c2.003,10.112,4.081,19.854,6.39,29.898c1.709,0.256,3.631,0.128,3.631,0.128
			c1.567-6.108,1.828-15.564,3.047-27.198C104.678,483.701,100.271,482.903,96.103,481.397"/>
		<path fill="#C8EBF6" d="M310.209,535.851c-0.367,0.106-0.646-0.057-0.797-0.308c-0.709,0.139-1.251,0.268-1.616,0.359
			c0-0.001,0.001-0.001,0.001-0.001c9.398-6.841,10.263-14.073,10.263-14.073c-6.233,2.811-12.854,3.861-16.073,4.23
			c21.726-18.831,25.336-53.798,25.336-53.798c-8.898,10.923-21.526,20.153-31.285,26.35l0.021-0.041c0,0-6.539,3.655-12.581,6.503
			c-0.266-0.04-0.529,0.03-0.729,0.34c-3.104,1.438-5.998,2.611-7.703,2.896c0,0,5.032,9.291,7.133,14.302l-0.412,0.334
			c0,0,7.279,17.206,9.929,33.872c0.28,2.816,0.497,5.283,0.647,7.169c0.127,2.438,0.3,4.119,0.3,4.119
			c9.625-1.425,23.221-0.037,23.221-0.037c-0.064,1.567,0.797,5.332,0.954,6.014c4.57-0.616,9.183-0.885,13.795-0.925
			C330.547,557.001,329.837,530.159,310.209,535.851"/>
		<path fill="#77C2D0" d="M108.813,487.637c-15.094-2.553-28.79-19.897-28.79-19.897c11.005,11.701,24.704,13.269,24.704,13.269
			c1.81-13.364-9.236-43.951-9.236-43.951c8.18,10.188,12.655,21.974,15.102,31.616L108.813,487.637z"/>
		<path fill="#A2DDE4" d="M143.067,463.974c0,0,11.874,20.929,22.295,29.983c11.246,9.771,21.697,23.576,26.14,31.948
			c0,0,5.638-13.099,8.713-17.653C200.214,508.252,166.9,498.483,143.067,463.974"/>
		<path fill="#A2DDE4" d="M298.046,504.792c1.65-2.322,3.542-4.482,5.344-6.688c2.955-3.617,6.331-7.13,8.812-11.065
			c-4.282,3.204-9.051,5.979-13.926,8.913c-14.146,9.586-24.003,12.301-24.003,12.301c3.075,4.556,8.714,17.651,8.714,17.651
			c2.688-5.065,7.586-12.122,13.521-19.072C297.006,506.14,297.56,505.477,298.046,504.792"/>
		<path fill="#5C5B5D" d="M138.562,152.316c-1.295,0.094-5.439,0.199-5.439,0.199c-37.563,2.621-65.173-26.486-65.173-26.486
			s-2.469,22.721,13.849,42.631c16.322,19.909,49.396,23.317,49.396,23.317c1.075,4.655-1.253,15.038-1.253,15.038
			s9.671-10.698,12.127-30.968C143.794,161.843,139.365,152.257,138.562,152.316"/>
		<path fill="#728084" d="M138.562,152.316c-1.245,0.071-5.439,0.199-5.439,0.199c-37.563,2.621-65.173-26.486-65.173-26.486
			s17.16,49.661,74.469,45.736C142.419,171.766,144.003,162.581,138.562,152.316"/>
		<path fill="#5C5B5D" d="M326.103,152.316c1.295,0.094,5.44,0.199,5.44,0.199c37.562,2.621,65.173-26.486,65.173-26.486
			s2.468,22.721-13.85,42.631c-16.321,19.909-49.396,23.317-49.396,23.317c-1.075,4.655,1.253,15.038,1.253,15.038
			s-9.671-10.698-12.127-30.968C320.872,161.843,325.301,152.257,326.103,152.316"/>
		<path fill="#728084" d="M326.103,152.316c1.245,0.071,5.44,0.199,5.44,0.199c37.562,2.621,65.173-26.486,65.173-26.486
			s-17.161,49.661-74.469,45.736C322.247,171.766,320.663,162.581,326.103,152.316"/>
		<path fill="#C8EBF6" d="M118.957,320.551c0,0-27,97.039,0,159.228V320.551z"/>
		<path fill="#C8EBF6" d="M387.8,474.05c-13.326,10.169-27.191,10.813-27.191,10.813c-0.618-13.286,13.905-42.331,13.905-42.331
			c-3.305,1.952-5.96,4.312-8.146,6.9l-0.096-9.747l10.479-8.655l-8.428-6.834l10.705-43.053l-10.251,6.834
			c0,0-3.187-61.272-0.909-87.698c0,0-12.983-12.985-19.362-18.224c0,0,1.205,18.866,2.58,49.011
			c5.817,24.181,14.855,74.224,3.613,118.232c0.13,8.922,0.227,17.981,0.277,27.127c0,0,5.603,19.465,7.424,33.133
			c0,0,1.822,0.513,4.556,0.058l-0.204-20.932C380.826,484.435,387.8,474.05,387.8,474.05"/>
		<path fill="#C8EBF6" d="M261.488,286.15c0,10.349,6.629,18.739,14.808,18.739c8.178,0,14.809-8.39,14.809-18.739
			c0-10.352-6.631-18.742-14.809-18.742C268.116,267.409,261.488,275.798,261.488,286.15"/>
		<path fill="#FFFFFF" d="M261.944,281.144c0,10.19,6.527,18.452,14.579,18.452c8.053,0,14.579-8.262,14.579-18.452
			c0-10.191-6.526-18.451-14.579-18.451C268.471,262.693,261.944,270.953,261.944,281.144"/>
		<path fill="#4F4E51" d="M272.653,271.631c-0.115,0.453-0.195,0.925-0.195,1.426c0,2.598,1.693,4.703,3.782,4.703
			c1.854,0,3.393-1.664,3.713-3.857c1.189,1.561,1.925,3.665,1.925,5.987c0,4.813-3.136,8.713-7.004,8.713s-7.005-3.9-7.005-8.713
			C267.868,276.044,269.873,272.788,272.653,271.631"/>
		<path fill="#C8EBF6" d="M190.417,286.15c0,10.349,6.628,18.739,14.807,18.739c8.178,0,14.809-8.39,14.809-18.739
			c0-10.352-6.631-18.742-14.809-18.742C197.045,267.409,190.417,275.798,190.417,286.15"/>
		<path fill="#FFFFFF" d="M190.874,281.144c0,10.19,6.526,18.452,14.579,18.452c8.052,0,14.579-8.262,14.579-18.452
			c0-10.191-6.527-18.451-14.579-18.451C197.401,262.693,190.874,270.953,190.874,281.144"/>
		<path fill="#4F4E51" d="M204.316,271.631c-0.115,0.453-0.195,0.925-0.195,1.426c0,2.598,1.693,4.703,3.781,4.703
			c1.856,0,3.394-1.664,3.714-3.857c1.19,1.561,1.925,3.665,1.925,5.987c0,4.813-3.137,8.713-7.004,8.713
			c-3.868,0-7.005-3.9-7.005-8.713C199.531,276.044,201.536,272.788,204.316,271.631"/>
		<path fill="#5C5B5D" d="M326.382,263.647c-6.604-0.965-18.127-2.06-31.96-1.354c-18.001,0.926-33.425,3.425-42.639,4.917
			c-2.75,0.446-4.911,0.798-6.562,1.016l-1.799,0.244c-2.021,0.278-3.346,0.454-4.476,0.51c-1.13-0.056-2.454-0.232-4.477-0.51
			l-1.799-0.244c-1.647-0.218-3.81-0.57-6.561-1.016c-9.213-1.492-24.637-3.991-42.638-4.917
			c-13.833-0.706-25.356,0.389-31.96,1.354c0,0-7.046,0.897-13.072,3.446l1.149,7.658c0,0,6.367-1.516,12.586-2.346
			c1.156,10.801,3.405,24.679,3.405,24.679l0.036,0.43c0.171,0.699,0.329,1.378,0.502,2.119c1.28,5.458,2.553,8.665,7.671,10.59
			c5.025,1.896,16.918,3.654,28.913,4.272c4.46,0.229,9.521-0.045,14.642-0.789c7.593-1.109,14.46-3.152,17.084-5.094
			c3.819-2.821,5.861-9.923,7.213-14.62l0.405-1.386c0.478-1.602,0.894-3.283,1.294-4.916c0.577-2.342,1.173-4.763,1.682-5.599
			c0.093-0.145,0.521-0.651,2.188-0.895c0.517-0.075,1.098-0.115,1.734-0.123c0.639,0.008,1.219,0.048,1.735,0.123
			c1.668,0.244,2.097,0.75,2.188,0.895c0.508,0.836,1.104,3.257,1.68,5.599c0.402,1.633,0.816,3.314,1.295,4.916l0.404,1.386
			c1.353,4.697,3.395,11.798,7.213,14.62c2.624,1.94,9.491,3.983,17.084,5.094c5.12,0.744,10.184,1.02,14.643,0.789
			c11.995-0.618,23.888-2.377,28.914-4.272c5.116-1.925,6.39-5.132,7.67-10.59c0.173-0.74,0.332-1.42,0.502-2.119l0.036-0.43
			c0,0,2.249-13.878,3.404-24.679c6.221,0.83,12.586,2.346,12.586,2.346l1.149-7.658
			C333.428,264.544,326.382,263.647,326.382,263.647 M227.071,280.278l-0.016,0.126c-0.3,2.482-1.933,15.072-4.587,19.362
			c-2.571,4.143-3.481,5.177-11.475,6.528c-0.342,0.058-0.7,0.111-1.073,0.166c-8.623,1.26-24.369,1.479-33.177-0.211l-0.611-0.118
			c-8.989-1.736-12.146-2.48-13.073-5.277c-1.256-3.779-3.667-21.246-3.844-24.991c-0.137-2.843,2.537-4.143,3.263-4.335
			c0.452-0.12,1.186-0.254,2.174-0.399c6.312-0.923,20.11-1.829,26.621-1.542c8.246,0.371,28.369,3.211,32.903,5.244
			C227.548,276.341,227.39,277.654,227.071,280.278 M314.839,300.854c-0.929,2.797-4.084,3.541-13.073,5.277l-0.611,0.118
			c-8.808,1.69-24.553,1.471-33.177,0.211c-0.372-0.055-0.73-0.108-1.073-0.166c-7.992-1.353-8.903-2.387-11.475-6.528
			c-2.654-4.29-4.286-16.879-4.588-19.361l-0.016-0.126c-0.319-2.624-0.477-3.937,2.895-5.447
			c4.534-2.033,24.658-4.873,32.904-5.244c6.51-0.287,20.311,0.619,26.62,1.542c0.988,0.145,1.722,0.279,2.175,0.399
			c0.727,0.192,3.398,1.492,3.264,4.335C318.505,279.607,316.095,297.074,314.839,300.854"/>
		<path fill="#96D6EB" d="M209.795,244.251c0,0-16.469-7.855-25.896,6.73c0,0-0.973-14.503,12.328-16.124
			C209.528,233.234,209.795,244.251,209.795,244.251"/>
		<path fill="#96D6EB" d="M203.618,222.941c0,0-15.267-7.205-22.224,6.642c0,0-2.271-12.098,8.624-15.019
			C200.914,211.644,203.618,222.941,203.618,222.941"/>
		<path fill="#96D6EB" d="M268.789,253.143c0,0,12.791-6.1,20.11,5.228c0,0,0.757-11.264-9.572-12.524
			C268.996,244.587,268.789,253.143,268.789,253.143"/>
		<path fill="#96D6EB" d="M277.884,232.97c0,0,12.942-2.095,15.158,9.734c0,0,4.297-8.541-3.207-13.061
			C282.331,225.119,277.884,232.97,277.884,232.97"/>
		<path fill="#A9DFF1" d="M208.649,359.145c0,0,9.036-6.072,14.371-6.909c0,0,1.164,11.46,6.464,17.106
			c0,0,11.438-10.312,22.75-11.045c0,0,2.92,6.283,7.661,8.614l-0.025,0.073c1.712,1.067,3.807,2.147,5.837,2.599
			c0,0,6.49-3.93,8.37-11.104c0,0,0.625,15.148-8.884,23.405c0,0-7.252-3.538-12.476-9.202c-1.568-1.528-3.199-3.306-3.992-4.751
			c0,0-16.775,11.869-17.389,18.638c0,0-12.109-11.808-16.239-20.904c0,0-8.082,2.551-10.324,4.195c0,0-6.496-10.625-7.814-20.213
			C196.958,349.646,204.77,357.107,208.649,359.145"/>
		<path fill="#5C5B5D" d="M239.144,329.369c-0.67-0.144,17.018,1.225,34.382,0.606c0,0,0.93-3.312,2.262-5.133
			c0,0-0.29,5.577,1.271,6.718c0,0-8.69,3.422-17.455,3.396c0,0,9.55-1.595,12.754-3.242
			C272.355,331.715,254.928,332.685,239.144,329.369"/>
	</g>
</g>
</svg>
