<svg xmlns="http://www.w3.org/2000/svg" width="595.276" height="198.425" viewBox="0 0 595.276 198.425"><path fill="#08c" d="M564.996 87.406v-58.768h-42.979l-144.29 42.98v29.383h-11.403v-42.527c0-16.477-18.995-29.836-42.426-29.836h-91.012c-23.431 0-42.426 13.359-42.426 29.836v38.98l-6.14-10.048h-8.772v-58.768h-42.978l-123.239 42.98v42.54c0 2.852 4.059 5.263 7.511 5.263h116.603v14.912h42.102v-15.35h20.261c7.247 9.151 21.125 15.35 37.077 15.35h91.012c15.69 0 29.357-6.006 36.697-14.912h162.297v14.912h42.104v-15.35h4.385l17.543-31.578h-21.927zm-431.989 0h-74.118c-5.208 0-12.817-4.092-3.026-7.509 9.792-3.418 77.144-26.699 77.144-26.699v34.208zm188.582 13.369c0 8.239-7.96 14.919-17.782 14.919h-48.857c-9.822 0-17.783-6.68-17.783-14.919v-37.483c0-8.24 7.961-14.918 17.783-14.918h48.857c9.822 0 17.782 6.678 17.782 14.918v37.483zm200.865-13.369h-89.905c-5.208 0-12.817-4.092-3.025-7.509 9.791-3.418 92.931-26.699 92.931-26.699v34.208z"/><g fill="#fff"><path d="M589.029 150.182c-.83-.923-2.002-1.445-3.227-1.445-.678 0-1.353.162-1.954.47-.679.339-9.461 4.673-16.117 5.021-.272.015-.536.021-.793.021-.966 0-1.79-.102-2.449-.302-2.234-.677-2.757-1.454-2.864-1.677-.108-.223-.097-.465-.077-.602l17.739-35.678c.682-1.378.579-3.023-.267-4.299-.787-1.206-2.136-1.938-3.596-1.938l-.232.006-9.633.505c-1.569.08-2.971 1.01-3.654 2.426-.123.25-13.12 26.741-15.671 31.989-1.249 2.57-2.06 5.46-2.32 8.196l-.73.263-.058.021c-.64.247-1.386.482-2.177.73l-.645.204-.169.055c-1.008.327-2.05.666-3.252.969l-.063.017-.731.2-.189.052-.178.032-.505.082-.876.146-1.171.194-.611.084-1.693.231-.467.065-.285.021-.122.01-1.06.061-.84.02c2.653-.529 5.691-1.324 8.768-3.085 2.172-1.226 5.171-3.441 7.035-6.989l.245-.455.146-.278.097-.203.139-.322.079-.203.013-.037.277-.705.068-.192c.379-1.194.603-2.414.631-3.441.106-2.071-.286-4.175-1.134-6.087-1.654-3.656-4.472-6.428-8.157-8.035-.838-.377-1.826-.689-2.99-.939l-.24-.041-1.311-.172-.353-.025-.422-.005-.162-.008-.438-.018-.273-.012c-.198-.011-.397-.02-.627-.02l-.154.001-.197.011-1.227.103c-1.019.078-1.848.251-2.579.402l-.057.012c-3.231.707-6.223 2.042-8.924 3.973-1.254.854-2.439 1.992-3.228 2.747l-.166.159-.041.04c-.836.829-2.039 2.107-3.027 3.486-1.987 2.8-2.883 4.994-3.932 7.788l-.021.058c-.752 2.132-1.237 4.084-1.485 6.003-1.616.523-3.14 1.019-4.556 1.484.177-2.428.011-4.709-.177-6.49-.169-1.61-.404-3.236-.631-4.809-.277-1.922-.543-3.758-.698-5.561 1.204-.701 3.09-2.021 3.463-4.634.17-1.185-.156-2.322-.919-3.203-1.337-1.543-3.457-1.721-4.935-1.722-2.037 0-4.125.411-4.356.458-.462.094-.896.295-1.265.587-.088.069-8.856 7.009-18.875 15.547-2.403 2.049-4.393 3.796-6.148 5.338-5.099 4.479-7.658 6.727-10.275 7.434-5.104 1.465-9.37 2.233-12.384 2.233-.501 0-.97-.021-1.395-.064-1.045-.104-1.839-.334-2.421-.735.639.024 1.269.036 1.883.036 1.583 0 3.096-.08 4.498-.238 2.647-.299 11.567-1.73 15.126-7.592 1.121-1.848 2.13-4.905.562-8.98-2.404-6.267-8.057-10.161-14.749-10.162-1.659 0-3.343.239-5.007.71-2.661.751-5.312 2.017-7.665 3.66-2.026 1.414-4.927 3.647-7.226 6.253-6.636 7.527-7.432 13.271-7.309 16.043-.42.019-.853.029-1.288.029-4.067 0-5.088-.924-5.19-1.029-.051-.051-.09-.092-.085-.314.087-3.864 6.809-14.18 11.554-20.271.722-.927.837-2.189.294-3.23-.19-.365-.451-.68-.758-.931 1.664-.602 3.132-1.564 4.237-2.799 1.655-1.851 2.352-4.179 1.91-6.387-.723-3.61-4.283-6.131-8.659-6.131-.76 0-1.53.077-2.289.229-2.354.47-4.459 1.631-5.925 3.27-1.655 1.851-2.352 4.179-1.91 6.387.443 2.222 1.965 4.027 4.089 5.09l-6.734.352c-.887.047-1.708.483-2.242 1.193-.087.115-8.88 11.701-19.55 17.994-10.674 6.291-27.468 8.588-27.636 8.61-1.467.195-2.572 1.431-2.604 2.91s1.021 2.761 2.478 3.018c.197.035 2.02.341 5.26.341 3.56 0 9.35-.384 16.722-2.21 5.729-1.421 9.44-2.504 11.837-3.297.912 3.757 3.271 7.998 8.372 9.319.871.225 1.849.339 2.908.339 5.29 0 12.418-2.842 17.445-5.214 3.272 5.22 9.314 5.972 14.465 5.972 1.22 0 2.549-.046 4.062-.142 6.927-.438 15.058-4.727 20.7-8.279l.022-.013c1.471-.839 2.415-1.229 2.982-1.41l.143.507c.475 1.709 1.066 3.835 2.741 5.24 3.273 2.747 7.896 4.261 13.016 4.261 5.563 0 10.835-1.749 14.462-4.797.437-.367.85-.751 1.248-1.16.511-.09 1.061-.189 1.648-.298 2.525-.417 5.715-1.036 9.383-1.758.485.958 1.053 1.857 1.686 2.666 2.096 2.692 5.182 4.755 8.684 5.801l.096.026c2.265.595 4.488.884 6.798.884 2.929 0 5.488-.479 7.391-.896l.083-.02.896-.228.462-.117.086-.023.747-.213.135-.042.583-.196 1.193-.405 1.07-.363.168-.062.938-.381 1.305-.53.515-.211.347-.134.2-.086.242-.114.716-.33.193-.089c1.958-.864 3.812-1.866 5.551-2.866 2.697 3.839 7.294 5.784 13.671 5.784.57 0 1.163-.016 1.763-.047l.459-.028c7.836-.508 14.945-2.828 20.57-6.709 4.467-3.082 6.545-6.134 6.768-6.472 1.074-1.613.923-3.777-.381-5.244zm-63.67-6.708c.324-.357.579-.619.86-.909l.38-.392c1.016-.96 2.114-1.728 3.179-2.223.231-.108.565-.266.68-.307l.286-.111.12-.054.05-.008.365-.062.386-.062.224-.038.068-.011.045-.007.141-.024c.353.077.834.404.944.604l.06.106.088.17-.044.074c-.285.489-.975.969-2.123 1.489-1.676.648-3.631 1.198-5.709 1.765zm-45.231 12.928l-.361-.009-.074-.239c-.303-.986-.761-2.478-2.207-3.571-.631-.477-1.381-.813-2.286-1.021 2.466-2.263 5.292-4.854 7.268-6.665.716 1.279 1.468 3.027 1.821 5.137.358 2.13.023 3.988-.917 5.101-.712.841-1.803 1.267-3.244 1.267zm-41.459-9.83c.867-2 2.67-4.396 6.385-5.076.752-.138 1.416-.207 1.973-.207.356 0 .608.028.78.061l-.005.021c-.313.927-3.671 3.868-7.762 4.923-.398.103-.866.194-1.371.278zM395.102 129.928c.848-2.387.718-4.746-.374-6.823-2.773-5.28-10.919-11.518-33.613-12.515l1.425-1.911c.69-.926.788-2.166.25-3.188-.52-.989-1.544-1.604-2.655-1.604l-.113.002-16.107.61c-.986.037-1.891.558-2.42 1.391l-3.342 5.267c-7.262.576-15.162 1.506-23.512 2.766-55.027 8.31-108.941 30.098-109.479 30.317-.812.331-1.439 1-1.716 1.833-.276.832-.175 1.744.278 2.495l7.376 12.229c.557.922 1.544 1.45 2.57 1.45.362 0 .729-.065 1.084-.203.401-.155 40.403-15.577 65.894-16.818l.083-.005c.069-.005 7.029-.529 15.049-.529 11.229 0 16.969.981 19.881 1.9l-10.816 17.039c-.612.965-.623 2.193-.028 3.169.548.898 1.521 1.438 2.561 1.438l.27-.012c1.051-.095 26.007-2.435 49.815-12.617 22.313-9.546 34.977-18.185 37.639-25.681zm-64.808 22.011l20.918-28.062c10.194.772 16.393 3.213 17.092 6.769.46 2.336-5.703 10.497-38.01 21.293zm-.374-27.812l-7.416 11.683c-5.354-1.038-12.118-1.564-20.149-1.564-5.064 0-10.661.215-16.635.639-5.784.409-11.491 1.113-16.989 2.004 13.691-4.909 28.673-9.088 43.458-10.961 6.383-.811 12.322-1.413 17.731-1.801z"/></g><g><ellipse transform="matrix(.196 .981 -.981 .196 457.775 -313.734)" fill="#FFB000" cx="420.269" cy="122.381" rx="4.933" ry="6.577"/><path fill="#FFB000" d="M586.787 152.175c-.402-.447-1.057-.565-1.58-.294-.099.049-9.729 4.945-17.318 5.343-1.66.088-3.098-.049-4.272-.406-2.431-.736-4.01-1.826-4.693-3.243-.737-1.522-.197-2.96-.201-2.96l17.879-35.959c.207-.418.178-.916-.08-1.305-.257-.394-.698-.619-1.167-.594l-9.637.505c-.478.024-.902.304-1.11.734 0 0-13.096 26.692-15.674 31.996-1.217 2.503-2.164 5.819-2.108 9.021-.745.275-1.616.583-2.617.946-.91.352-1.915.651-2.992.994-1.059.344-2.233.73-3.598 1.074l-1.012.276-.259.071c.138-.061-.104.004-.139.004l-.507.083-2.08.345-2.355.323-.609.085-.46.031-1.127.064c-2.991.105-6.402-.083-8.827-1.254-1.559-.76-2.337-1.528-2.691-2.635l5.41-1.158c3.554-.808 7.94-1.062 12.408-3.619 2.205-1.244 4.489-3.154 5.869-5.781l.261-.483.127-.243.139-.322.033-.096.301-.764c.29-.914.476-1.878.492-2.65.091-1.652-.233-3.301-.878-4.754-1.31-2.895-3.578-5.178-6.614-6.502-.753-.339-1.575-.574-2.421-.756l-1.311-.172-.472-.006-.213-.01-.425-.018c-.294-.008-.538-.033-.878-.027l-1.227.103c-.87.067-1.57.216-2.276.362-2.846.623-5.49 1.827-7.816 3.496-1.144.773-2.336 1.943-3.038 2.614-.906.899-1.908 1.997-2.701 3.104-1.824 2.57-2.637 4.63-3.562 7.096-.775 2.199-1.389 4.584-1.497 7.246-4.521 1.465-8.347 2.699-11.289 3.732 1.148-3.271 1.148-6.938.756-10.664-.413-3.933-1.232-7.963-1.438-11.898-.062-1.15 3.225-1.322 3.585-3.844.362-2.521-6.645-1.102-6.645-1.102s-8.697 6.876-18.789 15.477c-9.994 8.52-13.265 12.217-17.588 13.385-4.7 1.35-10.663 2.677-14.858 2.258-5.091-.507-6.424-3.791-6.463-7.08 2.95.365 6.776.584 10.383.176 6.301-.711 16.42-4.211 13.226-12.514-2.599-6.771-9.33-9.57-16.139-7.643-2.375.67-4.737 1.816-6.765 3.232-2.343 1.635-4.804 3.637-6.694 5.779-4.233 4.802-7.065 10.408-6.507 14.539.109.809.274 1.533.464 2.22-3.829.491-13.196 1.167-13.077-4.084.148-6.595 12.187-22.046 12.187-22.046l-13.223.689s-9.085 12.088-20.425 18.775c-11.345 6.688-28.764 9-28.764 9s7.801 1.378 20.738-1.827c12.938-3.209 15.077-4.578 15.077-4.578s-.28 8.825 6.605 10.608c5.603 1.448 16.989-3.953 21.028-6.013 2.073 6.458 7.984 7.441 16.91 6.878 6.542-.413 14.569-4.841 19.403-7.895l.023-.01c4.722-2.691 6.324-2.211 6.9-.94.692 1.528.943 4.381 2.379 5.585 6.164 5.174 17.681 4.458 23.619-.534.624-.523 1.167-1.073 1.655-1.646.772-.13 1.658-.287 2.655-.471 3.018-.498 7.007-1.29 11.726-2.221.487 1.498 1.258 3.004 2.222 4.235 1.992 2.559 4.747 4.048 7.18 4.774 4.978 1.308 9.123.762 12.782-.042l1.349-.342.747-.213.583-.196 2.259-.768 2.239-.909.538-.221.377-.146.242-.114.954-.44c2.466-1.086 4.827-2.452 6.521-3.449.55-.324 1.042-.627 1.51-.921.264.805.591 1.585 1.063 2.299 2.277 3.438 6.642 5.012 12.969 4.681l.433-.026c17.736-1.15 24.725-11.396 25.014-11.835.332-.491.283-1.148-.114-1.595zm-65.735-8.12c.508-.696.967-1.281 1.578-2.025.829-.954 1.247-1.352 1.852-1.983 1.187-1.131 2.561-2.133 4.032-2.816.374-.176.755-.355 1.005-.436l.435-.194c.22-.057.542-.095.809-.146l.418-.068.208-.035.106-.017.055-.009-.209.002.372-.062c.264-.007.549-.027.85.028 1.175.186 2.562 1.034 3.166 2.156.322.545.515 1.104.54 1.65l-.015.588-.286.74-.063.099-.137.229c-.713 1.227-2.021 2.041-3.541 2.722-3.149 1.229-7.009 2.067-10.919 3.244l-2.717.83c.686-1.553 1.717-3.471 2.461-4.497zm-85.799 3.234c1.011-3.787 3.796-7.743 9.26-8.744 5.396-.984 6.752 1.018 6.221 3.463-.529 2.444-5.287 5.99-9.944 7.191-1.694.437-4.03.645-6.114.964.138-1.06.362-2.057.577-2.874zm43.817 12.062c-2.682-.26-1.754-3.135-3.394-4.375-2.194-1.657-9.122.477-7.624-.919 1.5-1.394 14.887-13.661 14.887-13.661s3.352 3.429 4.309 9.144c.96 5.711-1.907 10.412-8.178 9.811zM392.073 124.501c-2.734-5.205-12.31-10.951-36.836-11.047l4.897-6.568-16.107.61-4.147 6.536c-7.286.535-15.496 1.452-24.791 2.855-55.311 8.352-108.796 30.129-108.796 30.129l7.376 12.229s40.548-15.738 66.833-17.018c0 0 32.123-2.457 39.495 3.129l-12.619 19.88s25.259-2.274 48.904-12.388 39.693-20.925 35.791-28.347zm-106.141 13.375c-19.734 1.397-38.583 6.256-51.609 10.367 19.018-9.284 48.575-21.629 77.488-25.293 9.274-1.176 17.123-1.861 23.783-2.164l-11.677 18.395c-5.981-1.418-17.373-2.766-37.985-1.305zm39.552 18.773c-1.21.381-2.237.695-3.169.975l27.467-36.848c16.161.914 20.675 5.268 21.466 9.29 1.223 6.207-11.772 15.914-45.764 26.583z"/></g></svg>