<svg xmlns="http://www.w3.org/2000/svg" width="250" height="160" viewBox="0 0 401 256" enable-background="new 0 0 401 256"><ellipse cx="179.25" cy="90.25" rx="17.5" ry="17"/><ellipse cx="225.25" cy="90.25" rx="17.5" ry="17"/><ellipse cx="193.875" cy="118.875" rx="5.125" ry="4.875"/><ellipse cx="209.875" cy="118.875" rx="5.125" ry="4.875"/><path d="M170.585 129.573c-.057.477-.085.953-.085 1.427v8c0 6.893 5.607 12.5 12.5 12.5h40c6.893 0 12.5-5.607 12.5-12.5v-8c0-.475-.028-.951-.085-1.427 18.604-11.13 30.085-31.11 30.085-52.573 0-33.911-28.037-61.5-62.5-61.5-34.462 0-62.5 27.589-62.5 61.5 0 21.463 11.482 41.443 30.085 52.573zm32.415-109.073c31.706 0 57.5 25.346 57.5 56.5 0 20.254-11.15 39.076-29.1 49.12-1.008.564-1.498 1.745-1.187 2.857.19.676.286 1.356.286 2.022v8c0 4.136-3.364 7.5-7.5 7.5h-5.75v-11.499c0-.829-.672-1.5-1.5-1.5s-1.5.671-1.5 1.5v11.5h-6v-11.5c0-.829-.672-1.5-1.5-1.5s-1.5.671-1.5 1.5v11.5h-6v-11.5c0-.829-.671-1.5-1.5-1.5s-1.5.671-1.5 1.5v11.5h-6v-11.5c0-.829-.671-1.5-1.5-1.5s-1.5.671-1.5 1.5v11.5h-4.249c-4.136 0-7.5-3.364-7.5-7.5v-8c0-.665.096-1.346.286-2.024.312-1.112-.179-2.292-1.187-2.856-17.949-10.044-29.099-28.866-29.099-49.12 0-31.154 25.794-56.5 57.5-56.5zM114.961 115.27h-28.085v-110.283h-5.708l-77.631 109.37v5.48h78.773v40.414h4.566v-40.414h28.084v-4.567zm-32.651 0h-74.207l73.75-103.889h.457v103.889zM367.877 115.27v-110.283h-5.709l-77.631 109.37v5.48h78.773v40.414h4.566v-40.414h28.084v-4.567h-28.083zm-4.566 0h-74.207l73.75-103.889h.457v103.889zM278.502 188.631c8.892 0 16.125-7.233 16.125-16.125 0-7.554-5.222-13.911-12.244-15.653 1.044-2.163 1.598-4.544 1.598-6.978 0-8.891-7.233-16.125-16.125-16.125s-16.125 7.234-16.125 16.125c0 2.055.396 4.082 1.159 5.979l-50.65 23.309-50.649-23.309c.763-1.897 1.159-3.925 1.159-5.979 0-8.891-7.233-16.125-16.125-16.125-8.891 0-16.125 7.234-16.125 16.125 0 2.434.553 4.815 1.597 6.978-7.023 1.741-12.244 8.099-12.244 15.653 0 8.892 7.234 16.125 16.125 16.125 6.098 0 11.541-3.377 14.284-8.636l30.084 13.845-29.684 13.661c-2.563-5.7-8.244-9.478-14.684-9.478-8.891 0-16.125 7.233-16.125 16.125 0 7.554 5.221 13.912 12.245 15.653-1.044 2.162-1.597 4.544-1.597 6.978 0 8.892 7.234 16.125 16.125 16.125s16.125-7.233 16.125-16.125c0-1.732-.284-3.461-.833-5.104l50.322-23.158 50.322 23.158c-.549 1.643-.833 3.371-.833 5.104 0 8.892 7.233 16.125 16.125 16.125s16.125-7.233 16.125-16.125c0-2.434-.554-4.815-1.597-6.978 7.023-1.741 12.244-8.1 12.244-15.653 0-8.892-7.233-16.125-16.125-16.125-6.439 0-12.12 3.777-14.684 9.478l-29.686-13.661 30.085-13.845c2.745 5.259 8.187 8.636 14.286 8.636zm-133.276 40.62l1.235 2.336c.856 1.618 1.29 3.365 1.29 5.192 0 6.135-4.991 11.125-11.125 11.125s-11.125-4.99-11.125-11.125c0-2.71.998-5.327 2.811-7.37l3.851-4.34-5.799.182-.292.017-.093.006c-6.134 0-11.125-4.99-11.125-11.125s4.991-11.125 11.125-11.125c5.142 0 9.581 3.491 10.796 8.491l.717 2.949 38.835-17.872 19.933 9.174-51.034 23.485zm121.762-14.787l.718-2.949c1.215-5 5.654-8.491 10.796-8.491 6.135 0 11.125 4.99 11.125 11.125s-4.99 11.125-11.117 11.125l-.101-.006-.292-.017-5.798-.182 3.85 4.34c1.812 2.043 2.811 4.66 2.811 7.37 0 6.135-4.99 11.125-11.125 11.125s-11.125-4.99-11.125-11.125c0-1.827.434-3.574 1.29-5.192l1.235-2.336-121.82-56.061-.858 2.694c-1.476 4.633-5.735 7.746-10.599 7.746-6.134 0-11.125-4.99-11.125-11.125s4.991-11.125 11.119-11.125l6.207.223-3.868-4.359c-1.813-2.043-2.811-4.66-2.811-7.37 0-6.134 4.991-11.125 11.125-11.125s11.125 4.991 11.125 11.125c0 2.06-.58 4.083-1.678 5.85l-1.494 2.406 122.41 56.334zm-38.836-23.376l-19.932-9.173 51.683-23.784-1.494-2.406c-1.099-1.767-1.679-3.79-1.679-5.85 0-6.134 4.99-11.125 11.125-11.125s11.125 4.991 11.125 11.125c0 2.71-.998 5.327-2.812 7.37l-3.868 4.358 5.824-.2.377-.022c6.135 0 11.125 4.99 11.125 11.125s-4.99 11.125-11.125 11.125c-4.863 0-9.123-3.113-10.599-7.746l-.857-2.694-38.893 17.897z"/></svg>