<svg xmlns="http://www.w3.org/2000/svg" width="518.418" height="573.566" viewBox="41.082 15.5 518.418 573.566" enable-background="new 41.082 15.5 518.418 573.566"><g fill="#004254"><path d="M255.556 402.297c0 55.188 32.062 102.886 78.573 125.484l-66.504-182.223c-7.739 17.339-12.069 36.527-12.069 56.739zM489.094 398.27c0-17.232-6.189-29.167-11.493-38.452-7.067-11.486-13.694-21.21-13.694-32.702 0-12.811 9.71-24.747 23.41-24.747.617 0 1.204.083 1.805.116-24.806-22.73-57.857-36.605-94.149-36.605-48.711 0-91.562 24.992-116.491 62.839 3.269.103 6.354.166 8.975.166 14.577 0 37.159-1.77 37.159-1.77 7.516-.441 8.396 10.604.888 11.492 0 0-7.553.884-15.95 1.324l50.764 151.024 30.516-91.512-21.718-59.513c-7.51-.44-14.626-1.324-14.626-1.324-7.514-.439-6.632-11.934.884-11.492 0 0 23.023 1.77 36.718 1.77 14.583 0 37.165-1.77 37.165-1.77 7.516-.441 8.403 10.604.888 11.492 0 0-7.563.884-15.956 1.324l50.387 149.876 13.912-46.468c6.017-19.29 10.606-33.136 10.606-45.068zM397.418 414.499l-41.835 121.553c12.496 3.675 25.706 5.685 39.389 5.685 16.233 0 31.807-2.806 46.298-7.905-.365-.595-.714-1.233-.996-1.926l-42.856-117.407zM517.318 335.411c.598 4.441.936 9.204.936 14.338 0 14.146-2.649 30.048-10.604 49.938l-42.582 123.124c41.455-24.163 69.321-69.076 69.321-120.514-.001-24.237-6.191-47.022-17.071-66.886zM557.5 402.297c0-89.614-72.908-162.522-162.528-162.522-89.616 0-162.528 72.908-162.528 162.522 0 59.739 32.399 112.043 80.541 140.288-23.808-1.277-50.35-1.988-78.602-1.988-90.851 0-191.344 10.399-191.344 23.234 0 12.832 85.667 23.235 191.344 23.235s191.344-10.403 191.344-23.235c0-.613-.193-1.221-.566-1.822 75.243-14.192 132.339-80.401 132.339-159.712zm-142.426 153.784c-14.932-5.238-44.697-9.614-83.73-12.362-53.867-24.335-91.446-78.573-91.446-141.422 0-85.501 69.567-155.068 155.074-155.068 85.5 0 155.074 69.567 155.074 155.068 0 78.7-58.931 143.895-134.972 153.784z"/></g><g><path fill="#E8F7FE" d="M413.883 396.179c-5.922 0-12.301-2.732-16.857-23.689-4.557-20.956-11.389-42.369-11.389-42.369 7.29 0 11.389-3.189 11.389-3.189-5.012-2.277-15.945-10.021-23.233-19.589-7.289-9.567-25.97-25.058-25.97-25.058v-30.979c0-20.957 13.44-37.357 13.44-37.357-9.11 0-13.44 8.199-13.44 8.199v-44.191c0-43.735 22.097-63.324 22.097-63.324-6.834-.455-11.391 2.734-11.391 2.734 3.188-32.346 13.1-41.914 13.1-41.914-36.445-9.567-56.777 11.846-56.777 11.846-4.1-19.59 11.932-30.983 11.932-30.983-18.679-4.1-34.127 1.367-34.127 1.367 0-28.702 11.411-38.275 11.411-38.275-56.947 0-89.282 42.819-89.282 42.819-2.277-18.224 2.738-34.184 2.738-34.184-55.125 23.234-69.699 74.689-69.699 74.689-3.645-8.656-4.1-28.305-4.1-28.305s-22.779 38.155-26.88 64.577c-4.1 26.424 3.644 102.279 3.644 102.279s-3.642-4.554-11.388-5.466c0 0 8.201 9.112 8.201 29.613 0 0-3.19-2.733-8.657-1.367 0 0 8.655 7.744 9.567 20.957 0 0-10.022 6.833-15.489 13.667 0 0-8.657.455-13.213 1.822 0 0 7.291 4.101 8.657 7.745 0 0-21.412 21.867-32.347 39.636 0 0 9.567-5.922 16.401-4.1 0 0-15.035 18.222-20.046 48.29 0 0 7.288-3.645 10.478-1.821 0 0-9.111 19.133-9.566 39.179l-10.023 5.924 7.745 5.467s-5.923 24.603-7.29 38.725c0 0 4.557-4.556 8.201-5.922 0 0 5.012 11.844 11.845 20.956 6.834 9.112 22.325 16.857 31.437 16.857l17.126-.669c-2.125 9.166-6.315 16.938-15.147 17.345l-.981 1.57-.546-.024c-.176 2.676-5.575 3.157-7.062 5.011-4.515 5.633-7.957 13.373-10.25 20.272-1.681 5.059-.886 5.057-2.05 10.251-.382 1.7-2.145 3.518-2.734 5.238 4.92-1.652 18.554-2.756 25.733-3.283l.122 6.355s1.184 1.102 3.144 1.898l.216-.024c.665.056 1.31.151 1.938.309 10.777-.964 18.279.854 30.769-.183 2.432-.29 4.709-.632 6.838-1.842.604-1.809.686-1.918.97-4.253.061-.416.061-.844.162-1.351l.576-.091c.073-.027.189-.052.445-.061l.159-.048.592-.051c.138-.051.267-.064.383-.033 2.262-.201 5.891-.393 8.15-.516 7.348-.012 17.014.834 17.014.834.599-8.234 1.196-21.014 14.521-58.257l3.304-2.049s40.929 14.421 78.905-.584c3.006 7.396 12.729 32.259 14.259 47.933 1.307 1.836 1.161 4.168 1.205 6.638.037 2.091.214 4.183.27 6.266 1.365-.186 6.298-.79 12.522-.779 2.26.123 5.889.313 8.149.516.116-.031.247-.018.384.033l.592.051.159.048c.256.009.373.032.445.061l.576.091c.102.507.102.935.161 1.351.284 2.335.366 2.444.971 4.253l.591.304c6.801-.861 13.69-1.021 20.533-.696 5.382.255 10.672 1.267 15.97 2.229l.006.151c.533.059 1.055.096 1.576.13 2.843.508 5.69.98 8.561 1.29.055-3.587.034-6.726-.04-9.479 5.706.274 13.965 1.409 17.43 1.914 1.373.33 2.489.533 3.661.785l.473.144-.019-.043c1.176.266 2.443.599 4.117 1.181-.255-3.082-.232-3.019-.639-6.882-.315-2.987-2.457-12.066-6.469-15.812 0 0 4.369 1.889 5.702 2.641-4.306-5.834-6.398-14.176-19.928-19.927 0 0 2.47-1.165 4.729-1.459-2.36-1.454-4.165-2.026-6.556-1.854.813-2.308 4.386-8.123 7.384-8.87 0 0-1.841-1.279-4.849-.29-1.119.586-2.204 1.215-3.26 1.96-.399.28-.981-.012-1.1-.447-.945-3.499-1.562-7.053-2.119-10.622 27.264-.987 31.088-14.974 31.088-14.974 2.276 1.822 2.275 5.922 2.275 5.922 11.845-15.489 10.479-30.979 10.479-30.979 2.731.454 5.012 2.277 5.012 2.277 1.366-23.688-5.922-64.235-5.922-64.235 3.645 1.82 5.922-.456 5.922-.456-4.101-1.82-4.556-6.378-4.556-6.378 5.929.45 6.839-5.017 6.839-5.017"/><path fill="#C8EBF6" d="M153.247 568.065s1.067-11.523-2.689-19.837c0 0 7.116.482 8.312 19.274 0 .002-4.984.582-5.623.563M117.526 529.209l.044-.354c.025.175.021.31-.044.354"/><path fill="#C8EBF6" d="M124.189 567.172l-.063-.017.083-.218-.02.235zM214.785 62.225c-2.277-18.224 2.737-34.185 2.737-34.185-55.125 23.235-69.702 74.69-69.702 74.69-3.643-8.656-4.099-28.306-4.099-28.306s-22.779 38.156-26.879 64.578c-4.1 26.424 3.643 102.278 3.643 102.278s-3.642-4.554-11.387-5.465c0 0 8.2 9.112 8.2 29.613 0 0-3.19-2.734-8.657-1.367 0 0 8.656 7.744 9.567 20.956 0 0-10.022 6.834-15.489 13.668 0 0-8.657.455-13.212 1.821 0 0 7.29 4.102 8.657 7.745 0 0-21.413 21.868-32.348 39.636 0 0 9.567-5.922 16.401-4.101 0 0-15.035 18.223-20.046 48.292 0 0 7.289-3.646 10.478-1.822 0 0-9.111 19.133-9.566 39.179l-10.022 5.925 7.744 5.467s-5.922 24.601-7.289 38.724c0 0 4.556-4.555 8.2-5.922 0 0 5.012 11.844 11.846 20.956 6.833 9.112 22.325 16.858 31.437 16.858l1.152-.159c-.508 3.142-1.079 6.27-1.914 9.353-.117.438-.699.729-1.099.448-1.055-.745-2.141-1.374-3.259-1.96-3.009-.989-4.849.29-4.849.29 2.997.747 6.57 6.562 7.384 8.87-2.392-.173-4.194.397-6.556 1.854 2.26.294 4.73 1.459 4.73 1.459-13.529 5.751-15.623 14.092-19.929 19.927 1.334-.753 5.701-2.641 5.701-2.641-4.009 3.745-6.15 12.824-6.466 15.812-.406 3.862-.385 3.8-.64 6.882 3.587-1.247 5.33-1.37 8.233-2.066 4.485-.652 17.022-2.372 21.627-1.894l-.727 8.855.228-.003c2.363-.678 4.29-.587 6.398-.812.031-2.441.159-4.88.359-7.312-.143-4.156.375-7.94 1.224-12.16l.092-.433c1.673-5.76 4.582-9.039 6.473-11.056.627-.67 1.172-1.463 1.638-2.275 1.127-1.502 2.299-3.457 3.204-5.925 1.874-5.111 1.071-16.338-2.693-27.296 3.97 5.708 7.584 10.719 9.297 12.432l-.112-13.951s7.289 7.285 13.812 12.787c3.141 2.743 7.016 6.312 9.767 7.731.198.125.378-1.2.597.8h-.002l.083-.38c3.694 2.073 7.496 3.719 11.054 6.021.38.245.771.364 1.145.622 1.646 1.135 4.546 2.396 7.15 3.77l2.464 29.096c2.222-30.581 19.647-59.864 19.647-59.864l-.638-.194c-5.393-1.667-44.846-15.315-68.154-64.054-1.535-3.21 8.655 3.645 8.655 3.645-9.567-23.234-13.212-60.593-13.212-60.593 3.188 2.732 6.379 3.188 6.379 3.188-6.834-19.135-9.568-42.825-9.568-64.237-1.821-115.262 40.776-141.685 40.776-141.685-7.289-2.734-15.034-2.506-15.034-2.506 8.428-20.272 36.444-48.519 36.444-48.519-7.517.457-36.901 8.427-36.901 8.427 24.373-63.553 48.976-80.409 48.976-80.409-1.821 15.261 4.101 31.435 4.101 31.435 52.848-65.377 95.309-62.327 95.309-62.327 3.147-6.557 6.725-11.029 6.725-11.029-56.948-.001-89.285 42.818-89.285 42.818M364.166 567.705s-.515-16.518-4.271-24.83c0 0 9.796 6.037 9.739 25.113 0 0-4.829-.264-5.468-.283"/><path fill="#A2DDE4" d="M109.318 482.763c6.452-63.191 8.209-186.812 8.209-186.812-14.01 27.677-25.284 77.905-25.284 77.905l2.732 10.934-6.149-2.733c-9.886 34.307-3.197 80.229-.982 93.167 6.287 4.974 13.777 6.654 21.474 7.539M96.103 481.397c2.003 10.112 4.081 19.854 6.39 29.898 1.709.256 3.631.128 3.631.128 1.567-6.108 1.828-15.564 3.047-27.198-4.493-.524-8.9-1.322-13.068-2.828"/><path fill="#C8EBF6" d="M310.209 535.851c-.367.106-.646-.057-.797-.308-.709.139-1.251.268-1.616.359l.001-.001c9.398-6.841 10.263-14.073 10.263-14.073-6.233 2.811-12.854 3.861-16.073 4.23 21.726-18.831 25.336-53.798 25.336-53.798-8.898 10.923-21.526 20.153-31.285 26.35l.021-.041s-6.539 3.655-12.581 6.503c-.266-.04-.529.03-.729.34-3.104 1.438-5.998 2.611-7.703 2.896 0 0 5.032 9.291 7.133 14.302l-.412.334s7.279 17.206 9.929 33.872c.28 2.816.497 5.283.647 7.169.127 2.438.3 4.119.3 4.119 9.625-1.425 23.221-.037 23.221-.037-.064 1.567.797 5.332.954 6.014 4.57-.616 9.183-.885 13.795-.925-.066-16.155-.776-42.997-20.404-37.305"/><path fill="#77C2D0" d="M108.813 487.637c-15.094-2.553-28.79-19.897-28.79-19.897 11.005 11.701 24.704 13.269 24.704 13.269 1.81-13.364-9.236-43.951-9.236-43.951 8.18 10.188 12.655 21.974 15.102 31.616l-1.78 18.963z"/><path fill="#A2DDE4" d="M143.067 463.974s11.874 20.929 22.295 29.983c11.246 9.771 21.697 23.576 26.14 31.948 0 0 5.638-13.099 8.713-17.653-.001 0-33.315-9.769-57.148-44.278M298.046 504.792c1.65-2.322 3.542-4.482 5.344-6.688 2.955-3.617 6.331-7.13 8.812-11.065-4.282 3.204-9.051 5.979-13.926 8.913-14.146 9.586-24.003 12.301-24.003 12.301 3.075 4.556 8.714 17.651 8.714 17.651 2.688-5.065 7.586-12.122 13.521-19.072.498-.692 1.052-1.355 1.538-2.04"/><path fill="#5C5B5D" d="M138.562 152.316c-1.295.094-5.439.199-5.439.199-37.563 2.621-65.173-26.486-65.173-26.486s-2.469 22.721 13.849 42.631c16.322 19.909 49.396 23.317 49.396 23.317 1.075 4.655-1.253 15.038-1.253 15.038s9.671-10.698 12.127-30.968c1.725-14.204-2.704-23.79-3.507-23.731"/><path fill="#728084" d="M138.562 152.316c-1.245.071-5.439.199-5.439.199-37.563 2.621-65.173-26.486-65.173-26.486s17.16 49.661 74.469 45.736c0 .001 1.584-9.184-3.857-19.449"/><path fill="#5C5B5D" d="M326.103 152.316c1.295.094 5.44.199 5.44.199 37.562 2.621 65.173-26.486 65.173-26.486s2.468 22.721-13.85 42.631c-16.321 19.909-49.396 23.317-49.396 23.317-1.075 4.655 1.253 15.038 1.253 15.038s-9.671-10.698-12.127-30.968c-1.724-14.204 2.705-23.79 3.507-23.731"/><path fill="#728084" d="M326.103 152.316c1.245.071 5.44.199 5.44.199 37.562 2.621 65.173-26.486 65.173-26.486s-17.161 49.661-74.469 45.736c0 .001-1.584-9.184 3.856-19.449"/><path fill="#C8EBF6" d="M118.957 320.551s-27 97.039 0 159.228v-159.228zM387.8 474.05c-13.326 10.169-27.191 10.813-27.191 10.813-.618-13.286 13.905-42.331 13.905-42.331-3.305 1.952-5.96 4.312-8.146 6.9l-.096-9.747 10.479-8.655-8.428-6.834 10.705-43.053-10.251 6.834s-3.187-61.272-.909-87.698c0 0-12.983-12.985-19.362-18.224 0 0 1.205 18.866 2.58 49.011 5.817 24.181 14.855 74.224 3.613 118.232.13 8.922.227 17.981.277 27.127 0 0 5.603 19.465 7.424 33.133 0 0 1.822.513 4.556.058l-.204-20.932c14.074-4.249 21.048-14.634 21.048-14.634M261.488 286.15c0 10.349 6.629 18.739 14.808 18.739 8.178 0 14.809-8.39 14.809-18.739 0-10.352-6.631-18.742-14.809-18.742-8.18.001-14.808 8.39-14.808 18.742"/><path fill="#fff" d="M261.944 281.144c0 10.19 6.527 18.452 14.579 18.452 8.053 0 14.579-8.262 14.579-18.452 0-10.191-6.526-18.451-14.579-18.451-8.052 0-14.579 8.26-14.579 18.451"/><path fill="#4F4E51" d="M272.653 271.631c-.115.453-.195.925-.195 1.426 0 2.598 1.693 4.703 3.782 4.703 1.854 0 3.393-1.664 3.713-3.857 1.189 1.561 1.925 3.665 1.925 5.987 0 4.813-3.136 8.713-7.004 8.713s-7.005-3.9-7.005-8.713c-.001-3.846 2.004-7.102 4.784-8.259"/><path fill="#C8EBF6" d="M190.417 286.15c0 10.349 6.628 18.739 14.807 18.739 8.178 0 14.809-8.39 14.809-18.739 0-10.352-6.631-18.742-14.809-18.742-8.179.001-14.807 8.39-14.807 18.742"/><path fill="#fff" d="M190.874 281.144c0 10.19 6.526 18.452 14.579 18.452 8.052 0 14.579-8.262 14.579-18.452 0-10.191-6.527-18.451-14.579-18.451s-14.579 8.26-14.579 18.451"/><path fill="#4F4E51" d="M204.316 271.631c-.115.453-.195.925-.195 1.426 0 2.598 1.693 4.703 3.781 4.703 1.856 0 3.394-1.664 3.714-3.857 1.19 1.561 1.925 3.665 1.925 5.987 0 4.813-3.137 8.713-7.004 8.713-3.868 0-7.005-3.9-7.005-8.713-.001-3.846 2.004-7.102 4.784-8.259"/><path fill="#5C5B5D" d="M326.382 263.647c-6.604-.965-18.127-2.06-31.96-1.354-18.001.926-33.425 3.425-42.639 4.917-2.75.446-4.911.798-6.562 1.016l-1.799.244c-2.021.278-3.346.454-4.476.51-1.13-.056-2.454-.232-4.477-.51l-1.799-.244c-1.647-.218-3.81-.57-6.561-1.016-9.213-1.492-24.637-3.991-42.638-4.917-13.833-.706-25.356.389-31.96 1.354 0 0-7.046.897-13.072 3.446l1.149 7.658s6.367-1.516 12.586-2.346c1.156 10.801 3.405 24.679 3.405 24.679l.036.43c.171.699.329 1.378.502 2.119 1.28 5.458 2.553 8.665 7.671 10.59 5.025 1.896 16.918 3.654 28.913 4.272 4.46.229 9.521-.045 14.642-.789 7.593-1.109 14.46-3.152 17.084-5.094 3.819-2.821 5.861-9.923 7.213-14.62l.405-1.386c.478-1.602.894-3.283 1.294-4.916.577-2.342 1.173-4.763 1.682-5.599.093-.145.521-.651 2.188-.895.517-.075 1.098-.115 1.734-.123.639.008 1.219.048 1.735.123 1.668.244 2.097.75 2.188.895.508.836 1.104 3.257 1.68 5.599.402 1.633.816 3.314 1.295 4.916l.404 1.386c1.353 4.697 3.395 11.798 7.213 14.62 2.624 1.94 9.491 3.983 17.084 5.094 5.12.744 10.184 1.02 14.643.789 11.995-.618 23.888-2.377 28.914-4.272 5.116-1.925 6.39-5.132 7.67-10.59.173-.74.332-1.42.502-2.119l.036-.43s2.249-13.878 3.404-24.679c6.221.83 12.586 2.346 12.586 2.346l1.149-7.658c-6.018-2.549-13.064-3.446-13.064-3.446m-99.311 16.631l-.016.126c-.3 2.482-1.933 15.072-4.587 19.362-2.571 4.143-3.481 5.177-11.475 6.528-.342.058-.7.111-1.073.166-8.623 1.26-24.369 1.479-33.177-.211l-.611-.118c-8.989-1.736-12.146-2.48-13.073-5.277-1.256-3.779-3.667-21.246-3.844-24.991-.137-2.843 2.537-4.143 3.263-4.335.452-.12 1.186-.254 2.174-.399 6.312-.923 20.11-1.829 26.621-1.542 8.246.371 28.369 3.211 32.903 5.244 3.372 1.51 3.214 2.823 2.895 5.447m87.768 20.576c-.929 2.797-4.084 3.541-13.073 5.277l-.611.118c-8.808 1.69-24.553 1.471-33.177.211-.372-.055-.73-.108-1.073-.166-7.992-1.353-8.903-2.387-11.475-6.528-2.654-4.29-4.286-16.879-4.588-19.361l-.016-.126c-.319-2.624-.477-3.937 2.895-5.447 4.534-2.033 24.658-4.873 32.904-5.244 6.51-.287 20.311.619 26.62 1.542.988.145 1.722.279 2.175.399.727.192 3.398 1.492 3.264 4.335-.179 3.743-2.589 21.21-3.845 24.99"/><path fill="#96D6EB" d="M209.795 244.251s-16.469-7.855-25.896 6.73c0 0-.973-14.503 12.328-16.124 13.301-1.623 13.568 9.394 13.568 9.394M203.618 222.941s-15.267-7.205-22.224 6.642c0 0-2.271-12.098 8.624-15.019 10.896-2.92 13.6 8.377 13.6 8.377M268.789 253.143s12.791-6.1 20.11 5.228c0 0 .757-11.264-9.572-12.524-10.331-1.26-10.538 7.296-10.538 7.296M277.884 232.97s12.942-2.095 15.158 9.734c0 0 4.297-8.541-3.207-13.061-7.504-4.524-11.951 3.327-11.951 3.327"/><path fill="#A9DFF1" d="M208.649 359.145s9.036-6.072 14.371-6.909c0 0 1.164 11.46 6.464 17.106 0 0 11.438-10.312 22.75-11.045 0 0 2.92 6.283 7.661 8.614l-.025.073c1.712 1.067 3.807 2.147 5.837 2.599 0 0 6.49-3.93 8.37-11.104 0 0 .625 15.148-8.884 23.405 0 0-7.252-3.538-12.476-9.202-1.568-1.528-3.199-3.306-3.992-4.751 0 0-16.775 11.869-17.389 18.638 0 0-12.109-11.808-16.239-20.904 0 0-8.082 2.551-10.324 4.195 0 0-6.496-10.625-7.814-20.213-.001-.001 7.811 7.46 11.69 9.498"/><path fill="#5C5B5D" d="M239.144 329.369c-.67-.144 17.018 1.225 34.382.606 0 0 .93-3.312 2.262-5.133 0 0-.29 5.577 1.271 6.718 0 0-8.69 3.422-17.455 3.396 0 0 9.55-1.595 12.754-3.242-.003.001-17.43.971-33.214-2.345"/></g></svg>