<svg xmlns="http://www.w3.org/2000/svg" width="555.996" height="361.667" viewBox="0 0 555.996 361.667"><path fill="#E30613" d="M521.812 61.384c-18.924-23.531-38.396-43.396-38.396-43.396s-85.812-16.898-205.421-16.898c-119.605.001-205.415 16.898-205.415 16.898s-19.473 19.865-38.396 43.396c-18.923 23.531-32.508 44.736-32.508 44.736s58.023 67.84 125.096 130.336c67.073 62.493 151.227 124.12 151.227 124.12s84.153-61.627 151.227-124.12c67.071-62.497 125.094-130.336 125.094-130.336s-13.585-21.205-32.508-44.736zm-70.777-15.924v23.552s-18.049-13.103-50.736-29.026c19.786 1.937 37.488 3.915 50.736 5.474zm-391.213 28.593c5.348-7.535 20.71-25.583 20.71-25.583s8.047-1.064 21.294-2.639c-25.083 23.559-36.518 53.94-39.446 77.112-14.535-15.188-21.606-23.449-21.606-23.449s13.7-17.905 19.048-25.441zm48.746 94.879c13.056.942 42.509 3.023 75.96 5.095 41.778 2.586 89.762 5.012 119.724 8.594 62.372 7.455 60.06 32.258 57.509 40.236s-9.874 35.259-64.791 35.011c-54.917-.249-94.427-47.711-94.427-47.711h-49.469c-2.774-2.501-5.562-5.022-8.365-7.569-13.38-12.16-25.416-23.408-36.141-33.656zm133.045 118.011c9.842 1.782 22.694 3.663 36.391 4.471 10.312.607 21.318.365 31.277-.208-19.338 16.097-31.28 25.638-31.28 25.638v-.002c0-.001-14.069-11.241-36.388-29.899zm201.32-113.723c-6.858-16.185-24.825-38.089-54.229-53.593-19.188-10.118-42.677-15.798-73.098-21.292-42.602-7.696-81.878-6.855-105.853-9.984-19.377-2.53-27.725-9.03-27.836-13.954-.248-11.017 46.22-23.275 120.768-16.317 74.548 6.958 132.198 48.042 132.198 48.042h42.74v-55.105c4.417 5.241 14.443 17.243 18.557 23.037 5.348 7.536 19.049 25.44 19.049 25.44s-23.293 27.216-72.296 73.726z"/></svg>